<svg id="_0507_analyst" xmlns="http://www.w3.org/2000/svg" xmlns:xlink="http://www.w3.org/1999/xlink" viewBox="0 0 500 500" data-imageid="analyst-22" imageName="Analyst" class="illustrations_image" style="width: 144px;"><defs><style>.cls-1_analyst-22{fill:url(#linear-gradient);}.cls-1_analyst-22,.cls-2_analyst-22,.cls-3_analyst-22,.cls-4_analyst-22,.cls-5_analyst-22,.cls-6_analyst-22,.cls-7_analyst-22{stroke-width:0px;}.cls-2_analyst-22{isolation:isolate;opacity:.18;}.cls-2_analyst-22,.cls-7_analyst-22{fill:#68e1fd;}.cls-3_analyst-22{fill:#231f20;}.cls-4_analyst-22{fill:#c14834;}.cls-5_analyst-22{fill:#fff;}.cls-6_analyst-22{fill:#ffaa71;}</style><linearGradient id="linear-gradient-analyst-22" x1="287.2" y1="1943.14" x2="422.26" y2="1913.31" gradientTransform="translate(-105.18 2159.35) scale(1 -1)" gradientUnits="userSpaceOnUse"><stop offset="0" stop-color="#000"/><stop offset=".13" stop-color="#000" stop-opacity=".69"/><stop offset=".25" stop-color="#000" stop-opacity=".32"/><stop offset="1" stop-color="#000" stop-opacity="0"/></linearGradient></defs><path id="background_analyst-22" class="cls-2_analyst-22 targetColor" d="M484.69,342.89c-1.27,13.9-7.57,28.07-14.15,43.15-12.07,27.68-32.36,53.36-62.63,61.62-43.35,11.82-165-28.73-234.37-8.33C34,480.33,8.45,370.22,16.25,340.47c5.43-20.73,12.14-41.53,12.31-63.18.25-30.62-12.4-59.78-8.82-90.37,3.48-29.76,11.2-60.03,29.07-84.61,16.92-23.27,45.32-33.67,72.85-38.45,49.93-8.67,102.53-1.29,148.17,20.78,23.1,11.18,44.81,26.4,59.82,47.22,15.39,21.33,22.93,47.23,35.31,70.44,13.3,24.88,32.03,46.45,54.8,63.1,16.71,12.2,35.61,21.77,49.76,36.86,12.82,13.71,16.4,27.05,15.17,40.63Z" style="fill: rgb(104, 225, 253);"/><g id="screen_analyst-22"><path class="cls-2_analyst-22 targetColor" d="M433.83,126.88v234.39c0,8.34-6.75,15.1-15.08,15.1H101.65c-8.34,0-15.1-6.76-15.1-15.1V126.88c0-8.34,6.76-15.1,15.1-15.1h317.08c8.33,0,15.09,6.75,15.1,15.08v.02Z" style="fill: rgb(104, 225, 253);"/><path class="cls-5_analyst-22" d="M429,126.88v234.39c0,8.34-6.75,15.1-15.08,15.1H96.81c-8.34,0-15.1-6.76-15.1-15.1V126.88c0-8.34,6.76-15.1,15.1-15.1h317.08c8.33-.01,15.1,6.73,15.11,15.06v.03Z"/><path class="cls-7_analyst-22 targetColor" d="M429,126.88v.41H81.73v-.41c0-8.33,6.75-15.09,15.08-15.1h317.08c8.33-.01,15.1,6.73,15.11,15.06v.03Z" style="fill: rgb(104, 225, 253);"/><path class="cls-5_analyst-22" d="M128.58,127.29v249.08h-31.77c-8.34,0-15.1-6.76-15.1-15.1V127.29h46.87Z"/><rect class="cls-5_analyst-22" x="96.89" y="191.06" width="24.46" height="2.42"/><rect class="cls-5_analyst-22" x="91.2" y="183.9" width="30.15" height="3.08"/><rect class="cls-5_analyst-22" x="96.89" y="219.68" width="24.46" height="2.42"/><rect class="cls-5_analyst-22" x="91.2" y="212.52" width="30.15" height="3.08"/><rect class="cls-5_analyst-22" x="96.89" y="248.31" width="24.46" height="2.42"/><rect class="cls-5_analyst-22" x="91.2" y="241.14" width="30.15" height="3.08"/><rect class="cls-5_analyst-22" x="96.89" y="276.93" width="24.46" height="2.42"/><rect class="cls-5_analyst-22" x="91.2" y="269.77" width="30.15" height="3.08"/></g><g id="data_graphic_analyst-22"><rect class="cls-2_analyst-22 targetColor" x="252.67" y="150.82" width="125.35" height="90.95" rx="5.88" ry="5.88" style="fill: rgb(104, 225, 253);"/><polygon class="cls-5_analyst-22" points="258.47 188.87 278.45 170.28 306.02 203.49 330.13 182.4 340.12 190.99 362.51 161.04 373.89 174.75 373.89 234.88 258.47 234.88 258.47 188.87"/><polygon class="cls-7_analyst-22 targetColor" points="305.95 204.36 278.4 171.17 258.89 189.32 258.05 188.43 278.51 169.39 306.09 202.62 330.13 181.59 340.03 190.1 362.49 160.05 374.36 174.36 373.41 175.15 362.54 162.03 340.22 191.88 330.13 183.21 305.95 204.36" style="fill: rgb(104, 225, 253);"/><circle class="cls-7_analyst-22 targetColor" cx="278.27" cy="170.34" r="2.49" style="fill: rgb(104, 225, 253);"/><circle class="cls-7_analyst-22 targetColor" cx="258.47" cy="188.26" r="2.49" style="fill: rgb(104, 225, 253);"/><circle class="cls-7_analyst-22 targetColor" cx="306.43" cy="203.32" r="2.49" style="fill: rgb(104, 225, 253);"/><circle class="cls-7_analyst-22 targetColor" cx="330.13" cy="182.4" r="2.49" style="fill: rgb(104, 225, 253);"/><circle class="cls-7_analyst-22 targetColor" cx="340.12" cy="190.99" r="2.49" style="fill: rgb(104, 225, 253);"/><circle class="cls-7_analyst-22 targetColor" cx="362.51" cy="161.04" r="2.49" style="fill: rgb(104, 225, 253);"/><circle class="cls-7_analyst-22 targetColor" cx="373.89" cy="174.75" r="2.49" style="fill: rgb(104, 225, 253);"/></g><g id="stair_analyst-22"><rect class="cls-3_analyst-22" x="153.39" y="267.39" width="45.48" height="147.79"/><rect class="cls-3_analyst-22" x="198.87" y="296.63" width="45.48" height="118.55"/><rect class="cls-3_analyst-22" x="244.35" y="325.87" width="45.48" height="89.31"/><rect class="cls-3_analyst-22" x="289.82" y="355.11" width="45.48" height="60.08"/><rect class="cls-3_analyst-22" x="335.3" y="384.35" width="45.48" height="30.84"/></g><g id="character_analyst-22"><path class="cls-6_analyst-22" d="M234.82,260.58c-1.57,2.52-3.36,4.89-5.35,7.08-3.01,3.29-6.45,6.17-9.83,9.06-1.71,1.47-3.42,2.94-5.05,4.49-1.35,1.28-3.09,2.17-3.42,4.16-.2,1.18,0,2.6-.88,3.39-.69.52-1.63.59-2.38.16-.74-.43-1.35-1.04-1.78-1.77-.18-.26-.32-.56-.41-.86-.07-.35-.06-.7.02-1.05.37-1.65,1.65-2.88,2.75-4.16.99-1.13,1.89-2.34,2.69-3.61.68-1.09,1.48-1.8,2.33-2.75,2.17-2.45,4.35-4.9,6.53-7.35,2.34-2.64,4.74-5.38,5.81-8.75.41-1.28.63-2.67,1.39-3.78,1.68-2.44,5.58-2.81,8.14-1.65,3.08,1.42.7,5.38-.54,7.38Z"/><path class="cls-6_analyst-22" d="M221.3,255.76s-1.7,14.78,0,22.77c1.03,4.92,1.47,9.95,1.32,14.97-.56.77,0,1.91.79,2.43s1.81.57,2.76.6l3.89.14c.46,0,.98,0,1.29-.33.5-.56,0-1.48-.69-1.8s-1.47-.35-2.11-.74c-1.21-.73-1.37-2.4-1.4-3.82l-.1-6.2c-.14-8.9-.29-17.85,1.07-26.64.09-.41.1-.83.02-1.23-.19-.73-.91-1.18-1.56-1.56-.71-.48-1.5-.8-2.34-.97-.84-.11-1.8.2-2.2.94"/><path class="cls-6_analyst-22" d="M242.1,200.96l2.18,1.2c1.05.58,2.26,1.65,3.33,1.23,1.89-.73,3.83-2.61,5.48-3.79,1.81-1.28,3.6-2.59,5.38-3.93.48-.31.9-.71,1.23-1.18.54-.88.54-2.18,1.47-2.63l.52,2.28,2.88-1.45c.35-.23.77-.34,1.19-.32.77.13,1.1,1.07,1.03,1.85-.23,2.62-2.91,3.45-5.03,4.12-.57.14-1.12.34-1.65.6-.4.24-.78.53-1.12.85-1.88,1.65-3.77,3.29-5.22,5.31-.67.98-1.41,1.91-2.21,2.79-.77.82-1.38,1.8-2.49,2.21-.77.24-1.58.27-2.37.09-2.84-.53-5.46-2.47-7.69-4.21-.24-.19-.51-.5-.35-.77.09-.12.22-.2.36-.25.86-.32,1.63-.85,2.23-1.54.53-.72,1.05-1.58.84-2.48Z"/><path class="cls-6_analyst-22" d="M236.85,186.56c-.47.72-1.18,1.37-2.06,1.41-.22-.02-.44.02-.63.14-.15.19-.2.43-.15.66l.23,2.91c.14.43-.09.9-.52,1.04-.09.03-.18.04-.27.04-1.06.29-2.36.52-3.11-.29-.35-.46-.56-1.02-.61-1.6-.57-3.33-1.1-6.73-.6-10.07.31-2.02,1.12-4.14,2.88-5.19,2.01-1.23,7.2-1.59,7,1.8-.09,1.39-.49,2.68-.43,4.1.07,1.98-.67,3.41-1.73,5.05Z"/><path class="cls-4_analyst-22" d="M239.1,174.69c.14.61.25,1.28-.04,1.84-.35.54-.9.91-1.54,1.03-1.52.41-3.15.31-4.66.79-.24.06-.46.19-.63.37-.14.21-.21.46-.22.71-.34,2.95-.25,5.93.28,8.86-2.75.82-5.68.79-8.41-.09-.89-.18-1.58-.9-1.72-1.8-1.28-4.19-.74-8.73,1.5-12.51,1.01-2.02,3.03-3.33,5.28-3.44,3.7-.49,9.22-.11,10.17,4.24Z"/><path class="cls-7_analyst-22 targetColor" d="M235.76,222.62c-.21,7.22,2.41,13.99,4.38,20.96.86,3.03,1.83,6.13,1.5,9.25,0,.08,0,.17,0,.26-9.52,2.74-19.97,4.12-29.18.45.98-4.87,1.5-9.82,1.55-14.79,0-1.96-.04-3.94.41-5.86.74-3.29,2.88-6.08,5.08-8.62.82-.94,1.69-1.91,2.06-3.1.35-1.1.24-2.28.13-3.42-.4-3.73-.49-7.49-.26-11.23.24-3.39,1.11-6.7,2.56-9.77.62-1.4,1.48-2.68,2.54-3.78,1.07-1.11,2.51-1.81,4.04-1.97,1.55-.14,3.06.56,3.96,1.84,2.32,3.58,6.17,4.38,8.99,7.59.17.15.28.36.33.58,0,.24-.1.48-.25.67-.99,1.57-1.98,3.14-2.97,4.72-.3.5-.65.98-1.04,1.42h0c-.35.37-.77.66-1.13,1.02-1,1.04-1.36,2.53-1.62,3.96-.62,3.24-.98,6.53-1.08,9.83Z" style="fill: rgb(104, 225, 253);"/><path class="cls-7_analyst-22 targetColor" d="M232.81,294.86l-.96-.31c-.77-.28-1.57-.46-2.38-.53-.14-.02-.28,0-.41.06-.16.1-.28.24-.36.41-.13.29-.33.54-.58.73-.47.3-1.08.16-1.62,0-.57-.13-1.12-.33-1.65-.59-.51-.28-.94-.69-1.47-.94-.29-.17-.63-.19-.94-.07-.15.09-.28.22-.38.36-.2.23-.36.5-.47.79-.06.29-.06.59,0,.88,0,.26.08.51.22.74.26.36.77.41,1.23.45l4.7.29c1.47.09,2.95.19,4.42.16.81.01,1.62-.07,2.41-.26.11-.03.23-.08.27-.19.01-.08,0-.16-.04-.23-.45-.99-1.5-1.55-2.53-1.91" style="fill: rgb(104, 225, 253);"/><path class="cls-7_analyst-22 targetColor" d="M206.34,284.02c.13.47,0,.98.12,1.46.13.37.33.71.6,1l1.14,1.41c.13.17.28.32.46.44.45.27,1.03.11,1.54-.05.13-.06.28-.06.41,0,.08.07.13.16.14.27l.66,2.28c.09.31.62,2.65.44,2.91-.09.12-.21.21-.35.28-1.05.53-2.83-1.83-3.7-2.59s-1.42-1.86-1.89-2.93c-.25-.58-.49-1.16-.72-1.74-.27-.53-.45-1.11-.53-1.7,0-.33.18-.64.48-.79.26-.16,1.07-.75,1.2-.24Z" style="fill: rgb(104, 225, 253);"/><path class="cls-1_analyst-22" d="M241.65,252.83c-1.39.48-2.92.33-4.19-.41-2.18-1.37-3.05-4.12-3.45-6.63-.86-5.57-.35-11.62-3.29-16.42-.9-1.47-2.14-2.95-1.96-4.66.19-1.79,1.86-3,2.82-4.53,1.06-1.65,1.23-3.7,1.43-5.66.34-3.68.66-7.36.99-11.03,0,.92,4.07,2.88,5.55,4.32-.35.37-.77.66-1.13,1.02-1,1.04-1.36,2.53-1.62,3.96-.61,3.24-.96,6.53-1.06,9.82-.21,7.22,2.41,13.99,4.38,20.96.88,3.04,1.84,6.15,1.51,9.26Z"/></g><g id="icons_analyst-22"><rect class="cls-7_analyst-22 targetColor" x="159.59" y="154.6" width="36.46" height="36.46" style="fill: rgb(104, 225, 253);"/><rect class="cls-7_analyst-22 targetColor" x="159.59" y="210.07" width="36.46" height="36.46" style="fill: rgb(104, 225, 253);"/><rect class="cls-5_analyst-22" x="164.59" y="160.05" width="5.51" height="26.48"/><rect class="cls-5_analyst-22" x="173.03" y="168.59" width="5.51" height="17.95"/><rect class="cls-5_analyst-22" x="181.64" y="174.75" width="5.51" height="11.78"/><path class="cls-5_analyst-22" d="M176.82,242.39c-7.08,0-12.84-5.76-12.84-12.84s5.76-12.84,12.84-12.84,12.84,5.76,12.84,12.84-5.76,12.84-12.84,12.84ZM176.82,217.92c-6.41,0-11.62,5.21-11.62,11.62s5.21,11.62,11.62,11.62,11.62-5.21,11.62-11.62-5.21-11.62-11.62-11.62Z"/><rect class="cls-5_analyst-22" x="176.21" y="217.31" width="1.22" height="3.33"/><rect class="cls-5_analyst-22" x="176.21" y="238.44" width="1.22" height="3.33"/><rect class="cls-5_analyst-22" x="185.72" y="228.93" width="3.33" height="1.22"/><rect class="cls-5_analyst-22" x="164.59" y="228.93" width="3.33" height="1.22"/><polygon class="cls-5_analyst-22" points="183.46 233.95 176.21 230.69 176.21 223.75 177.43 223.75 177.43 229.9 183.96 232.84 183.46 233.95"/></g></svg>