<svg id="_0468_ar_track" xmlns="http://www.w3.org/2000/svg" viewBox="0 0 500 500" data-imageid="augmented-reality-3-58" imageName="Augmented Reality 3" class="illustrations_image" style="width: 144px;"><defs><style>.cls-1_augmented-reality-3-58{fill:#fff;}.cls-2_augmented-reality-3-58{fill:#f4a28c;}.cls-3_augmented-reality-3-58{opacity:.46;}.cls-3_augmented-reality-3-58,.cls-4_augmented-reality-3-58,.cls-5_augmented-reality-3-58,.cls-6_augmented-reality-3-58,.cls-7_augmented-reality-3-58,.cls-8_augmented-reality-3-58,.cls-9_augmented-reality-3-58{fill:none;}.cls-4_augmented-reality-3-58{opacity:.58;}.cls-10_augmented-reality-3-58{fill:#ce8172;}.cls-11_augmented-reality-3-58{fill:#e6e6e6;}.cls-5_augmented-reality-3-58{opacity:.03;}.cls-6_augmented-reality-3-58{opacity:.73;}.cls-7_augmented-reality-3-58{opacity:.05;}.cls-8_augmented-reality-3-58{opacity:.08;}.cls-9_augmented-reality-3-58{opacity:.31;}.cls-12_augmented-reality-3-58{fill:#24285b;}.cls-13_augmented-reality-3-58{fill:#000001;}.cls-14_augmented-reality-3-58{fill:#ffd200;}.cls-15_augmented-reality-3-58{fill:#68e1fd;}</style></defs><g id="ar_augmented-reality-3-58"><g class="cls-7_augmented-reality-3-58"><polygon class="cls-13_augmented-reality-3-58" points="471.58 12.82 250.42 125.14 239.65 159.77 471.58 349.55 471.58 12.82"/></g><rect class="cls-11_augmented-reality-3-58" x="335.74" y="131.69" width="109.29" height="40.28"/><rect class="cls-11_augmented-reality-3-58" x="334.97" y="292.93" width="120.07" height="39.25"/><rect class="cls-11_augmented-reality-3-58" x="265.7" y="190.56" width="135.46" height="87.36"/><g class="cls-3_augmented-reality-3-58"><rect class="cls-1_augmented-reality-3-58" x="276.73" y="202.75" width="57.34" height="61.57"/></g><g class="cls-3_augmented-reality-3-58"><rect class="cls-1_augmented-reality-3-58" x="342.53" y="202.81" width="28.48" height="4.77"/></g><g class="cls-3_augmented-reality-3-58"><rect class="cls-1_augmented-reality-3-58" x="378.32" y="202.81" width="13.85" height="4.77"/></g><g class="cls-3_augmented-reality-3-58"><rect class="cls-1_augmented-reality-3-58" x="357.16" y="217" width="35.02" height="4.77"/></g><g class="cls-3_augmented-reality-3-58"><rect class="cls-1_augmented-reality-3-58" x="342.53" y="217" width="9.11" height="4.77"/></g><g class="cls-3_augmented-reality-3-58"><rect class="cls-1_augmented-reality-3-58" x="380.63" y="231.18" width="11.54" height="4.77"/></g><g class="cls-3_augmented-reality-3-58"><rect class="cls-1_augmented-reality-3-58" x="342.53" y="231.18" width="32.84" height="4.77"/></g><g class="cls-3_augmented-reality-3-58"><rect class="cls-1_augmented-reality-3-58" x="342.53" y="245.37" width="15.01" height="4.77"/></g><g class="cls-3_augmented-reality-3-58"><rect class="cls-1_augmented-reality-3-58" x="361.26" y="245.37" width="30.91" height="4.77"/></g><g class="cls-3_augmented-reality-3-58"><rect class="cls-1_augmented-reality-3-58" x="342.53" y="259.55" width="35.28" height="4.77"/></g><g class="cls-3_augmented-reality-3-58"><rect class="cls-1_augmented-reality-3-58" x="344.59" y="299.73" width="35.02" height="24.89"/></g><g class="cls-3_augmented-reality-3-58"><rect class="cls-1_augmented-reality-3-58" x="384.35" y="299.73" width="60.16" height="24.89"/></g><circle class="cls-11_augmented-reality-3-58" cx="306.75" cy="107.83" r="26.94"/><rect class="cls-11_augmented-reality-3-58" x="421.81" y="191.85" width="35.4" height="39.51"/><g class="cls-3_augmented-reality-3-58"><rect class="cls-1_augmented-reality-3-58" x="396.35" y="137.07" width="41.18" height="30.79"/></g><g class="cls-3_augmented-reality-3-58"><path class="cls-1_augmented-reality-3-58" d="m306.75,107.83l10.83,16.37c-3.21,2.12-6.98,3.26-10.83,3.26-10.77,0-19.63-8.86-19.63-19.63s8.86-19.63,19.63-19.63,19.63,8.86,19.63,19.63h-19.63Z"/></g></g><g id="sd_augmented-reality-3-58" class="cls-5_augmented-reality-3-58"><ellipse class="cls-13_augmented-reality-3-58" cx="140.32" cy="466.95" rx="103.25" ry="14.23"/></g><g id="person_augmented-reality-3-58"><path class="cls-15_augmented-reality-3-58 targetColor" d="m161.95,160.12s25.38,35.3,30.55,65.09l30.87-57.8,10.94,6.98s-27.44,90.56-50.65,93.89c-23.21,3.33-41.96-61.08-41.96-61.08l20.25-47.08Z" style="fill: rgb(104, 225, 253);"/><g class="cls-3_augmented-reality-3-58"><path class="cls-1_augmented-reality-3-58" d="m161.95,160.12s25.38,35.3,30.55,65.09l30.87-57.8,10.94,6.98s-27.44,90.56-50.65,93.89c-23.21,3.33-41.96-61.08-41.96-61.08l20.25-47.08Z"/></g><path class="cls-2_augmented-reality-3-58" d="m225.52,168.78s7.26-15.91,12.98-16.38-4.19,21.99-4.19,21.99l-8.79-5.61Z"/><path class="cls-15_augmented-reality-3-58 targetColor" d="m155.21,447.51s2.47,6.54,8.42,6.96,7.6,6.2,2.27,7.8c-5.32,1.6-19.22-5.07-19.22-5.07l.33-10.89,8.2,1.21Z" style="fill: rgb(104, 225, 253);"/><path class="cls-15_augmented-reality-3-58 targetColor" d="m77.82,446.3s1.56,7.75,7.51,8.16c5.95.41,7.6,6.2,2.27,7.8s-19.22-5.07-19.22-5.07l.33-10.89h9.1Z" style="fill: rgb(104, 225, 253);"/><path class="cls-15_augmented-reality-3-58 targetColor" d="m129.65,145.87l-18.71.59s-57.72,4.04-66.47,37.94c-8.75,33.9,31.34,114.09,31.34,114.09h75.71s65.5-146.86-21.87-152.62Z" style="fill: rgb(104, 225, 253);"/><path class="cls-2_augmented-reality-3-58" d="m130.26,105.56s2.1,10.12,1.19,17.13c-.37,2.84-3.02,4.88-5.86,4.46-3.52-.51-8.14-2.23-9.92-7.51l-4.13-8.6s-2.4-5.48,2.89-10.33c5.29-4.85,14.86-1.38,15.83,4.85Z"/><polygon class="cls-2_augmented-reality-3-58" points="112.29 112.6 110.94 146.46 129.65 145.87 123.12 121.47 112.29 112.6"/><path class="cls-12_augmented-reality-3-58" d="m127.77,106.29c-1.78.31-5.08.68-9.55.39,0,0,3.74,4.09,1.11,9.39-2.63,5.3-8.09,3.78-8.09,3.78l-1.4-13.21c-.53-3.84,1.07-7.67,4.19-9.95,1.28-.93,2.7-1.88,4.15-2.67,3.62-1.97,9.48-.1,12.58-3.07,1.36-1.3,3.63-.66,4.12,1.16,1.07,3.94,1.1,10.34-4.07,13.18-.95.52-1.99.82-3.05,1Z"/><path class="cls-12_augmented-reality-3-58" d="m75.81,298.48s10.16,73.91-10.56,147.82h15.37s27.47-43.53,34.46-133.4l-39.26-14.42Z"/><path class="cls-2_augmented-reality-3-58" d="m120.39,115.65s-.54-3.94-3.48-3.29c-2.93.66-2.18,6.36,1.92,6.41l1.56-3.13Z"/><path class="cls-2_augmented-reality-3-58" d="m131.26,112.01l3.33,3.62c.82.89.44,2.34-.72,2.7l-3.84,1.2,1.23-7.52Z"/><g class="cls-9_augmented-reality-3-58"><path class="cls-10_augmented-reality-3-58" d="m124.78,126.75s-3.51-.29-6.43-2.87c0,0,.99,6.12,8.47,11.4l-2.04-8.53Z"/></g><path class="cls-12_augmented-reality-3-58" d="m151.52,298.48s18.5,105.45,6.86,147.82h-14.9s-5.12-97.78-30.26-120.59l-37.4-27.22h75.71Z"/><g class="cls-8_augmented-reality-3-58"><path class="cls-13_augmented-reality-3-58" d="m78.15,169.5s30.72,11.68,13.96,58.88c-16.76,47.2-10.65,52.76,7.14,49.68,10.65-1.84,20.09-19.76,23.42-28.66,2.92-7.8,4.61-18.53,13.68-4.44,3.43,5.33,3.24,12.68,2.81,18.66-.9,12.57-5.14,27.85-16.55,34.86h-46.79s-24.37-25.39-24.37-25.39v-63.63s26.71-39.96,26.71-39.96Z"/></g><path class="cls-15_augmented-reality-3-58 targetColor" d="m74.97,166.54c-6.28-4.91-15.27-4.18-20.83,1.52-10.4,10.65-24.88,34.52-18.68,82.21,9.31,71.7,58.81,70.67,99.57-2.33l-12.43-7.92s-37.33,51.68-53.62,26.07c-14.79-23.24,34.75-77.06,5.99-99.57Z" style="fill: rgb(104, 225, 253);"/><g class="cls-3_augmented-reality-3-58"><path class="cls-1_augmented-reality-3-58" d="m74.97,166.54c-6.28-4.91-15.27-4.18-20.83,1.52-10.4,10.65-24.88,34.52-18.68,82.21,9.31,71.7,58.81,70.67,99.57-2.33l-12.43-7.92s-37.33,51.68-53.62,26.07c-14.79-23.24,34.75-77.06,5.99-99.57Z"/></g><path class="cls-2_augmented-reality-3-58" d="m124.5,241.25s4.71-12.23,10.52-12.85c5.81-.62-2.5,17.96-2.5,17.96l-8.02-5.11Z"/><rect class="cls-14_augmented-reality-3-58" x="235.97" y="114.08" width="27.7" height="53.6" transform="translate(48.17 -63.06) rotate(15.9)"/><g class="cls-3_augmented-reality-3-58"><rect class="cls-1_augmented-reality-3-58" x="239.25" y="118.51" width="22.12" height="41.23" transform="translate(47.71 -63.27) rotate(15.9)"/></g><g class="cls-3_augmented-reality-3-58"><circle class="cls-1_augmented-reality-3-58" cx="243.57" cy="162.15" r="1.75"/></g></g><g id="plant_augmented-reality-3-58"><g class="cls-4_augmented-reality-3-58"><path class="cls-15_augmented-reality-3-58 targetColor" d="m208.45,447.18s-11.91-3.25-14.5-14.33c0,0,18.45-3.73,18.97,15.31l-4.48-.98Z" style="fill: rgb(104, 225, 253);"/></g><g class="cls-6_augmented-reality-3-58"><path class="cls-15_augmented-reality-3-58 targetColor" d="m209.91,446s-8.32-13.15-1-25.44c0,0,14.03,8.91,7.79,25.47l-6.8-.03Z" style="fill: rgb(104, 225, 253);"/></g><path class="cls-15_augmented-reality-3-58 targetColor" d="m212.05,446.01s4.4-13.89,17.68-16.52c0,0,2.49,9.02-8.6,16.56l-9.08-.04Z" style="fill: rgb(104, 225, 253);"/><polygon class="cls-12_augmented-reality-3-58" points="203.42 445.7 205.83 462.21 221.03 462.27 223.27 445.78 203.42 445.7"/></g></svg>