<svg id="_0473_ar_1" xmlns="http://www.w3.org/2000/svg" viewBox="0 0 500 500" data-imageid="augmented-reality-1-20" imageName="Augmented Reality 1" class="illustrations_image" style="width: 144px;"><defs><style>.cls-1_augmented-reality-1-20{fill:#f4a28c;}.cls-2_augmented-reality-1-20,.cls-3_augmented-reality-1-20{fill:#a5a5a5;}.cls-4_augmented-reality-1-20{opacity:.8;}.cls-4_augmented-reality-1-20,.cls-5_augmented-reality-1-20,.cls-6_augmented-reality-1-20{fill:none;}.cls-3_augmented-reality-1-20{opacity:.57;}.cls-7_augmented-reality-1-20,.cls-8_augmented-reality-1-20{fill:#e6e6e6;}.cls-5_augmented-reality-1-20{opacity:.03;}.cls-8_augmented-reality-1-20{opacity:.3;}.cls-6_augmented-reality-1-20{opacity:.6;}.cls-9_augmented-reality-1-20{fill:#ce8172;opacity:.31;}.cls-10_augmented-reality-1-20{opacity:.58;}.cls-10_augmented-reality-1-20,.cls-11_augmented-reality-1-20,.cls-12_augmented-reality-1-20{fill:#68e1fd;}.cls-13_augmented-reality-1-20{fill:#fff;opacity:.46;}.cls-14_augmented-reality-1-20{fill:#24285b;}.cls-15_augmented-reality-1-20{opacity:.08;}.cls-15_augmented-reality-1-20,.cls-16_augmented-reality-1-20{fill:#000001;}.cls-11_augmented-reality-1-20{opacity:.73;}.cls-17_augmented-reality-1-20{fill:#ffd200;}</style></defs><g id="bg_augmented-reality-1-20"><g class="cls-5_augmented-reality-1-20"><ellipse class="cls-16_augmented-reality-1-20" cx="215.96" cy="448.32" rx="198.88" ry="21.82"/></g><path class="cls-8_augmented-reality-1-20" d="m391.07,59.06c48.07,19.82,83.73,70.07,90.77,130.85,5.93,51.22-10.74,112.89-92.39,137.47-83.34,25.09-313.2,26.79-351.97-57.86C-1.29,184.86,12.6,79.73,101.73,47.07c62.48-22.89,195.46-26.71,289.35,11.99Z"/></g><g id="plant_augmented-reality-1-20"><path class="cls-10_augmented-reality-1-20 targetColor" d="m364.79,426.49s-15.64-4.27-19.04-18.82c0,0,24.23-4.9,24.92,20.11l-5.88-1.29Z" style="fill: rgb(26, 117, 232);"/><path class="cls-11_augmented-reality-1-20 targetColor" d="m366.71,424.94s-10.93-17.27-1.31-33.42c0,0,18.42,11.7,10.24,33.46l-8.93-.04Z" style="fill: rgb(26, 117, 232);"/><path class="cls-12_augmented-reality-1-20 targetColor" d="m369.53,424.95s5.77-18.24,23.22-21.7c0,0,3.27,11.84-11.3,21.75l-11.92-.05Z" style="fill: rgb(26, 117, 232);"/><polygon class="cls-14_augmented-reality-1-20" points="358.19 424.54 361.36 446.22 381.32 446.31 384.26 424.65 358.19 424.54"/></g><g id="person_augmented-reality-1-20"><path class="cls-2_augmented-reality-1-20" d="m53.92,414.02v26.54c0,9.48,58.89,17.17,131.54,17.17s131.54-7.69,131.54-17.17v-26.54H53.92Z"/><ellipse class="cls-7_augmented-reality-1-20" cx="185.46" cy="414.02" rx="131.54" ry="17.17"/><path class="cls-7_augmented-reality-1-20" d="m164.3,257.25l63.58,4.98s-1.83-128.93-10.23-142.2c-8.4-13.27-20.11-17.8-20.11-17.8l-19.01.6-15.78,55.82,1.54,98.6Z"/><path class="cls-12_augmented-reality-1-20 targetColor" d="m223.5,408.63s2.51,6.65,8.55,7.07c6.05.42,7.72,6.3,2.31,7.92-5.41,1.62-19.52-5.15-19.52-5.15l.33-11.07,8.33,1.23Z" style="fill: rgb(26, 117, 232);"/><path class="cls-12_augmented-reality-1-20 targetColor" d="m144.89,407.4s1.58,7.87,7.63,8.29c6.05.42,7.72,6.3,2.31,7.92-5.41,1.62-19.52-5.15-19.52-5.15l.33-11.07h9.25Z" style="fill: rgb(26, 117, 232);"/><path class="cls-14_augmented-reality-1-20" d="m142.85,257.25s10.32,75.07-10.73,150.15h15.61s27.9-44.22,35-135.5l-39.88-14.65Z"/><path class="cls-14_augmented-reality-1-20" d="m219.75,257.25s18.79,107.11,6.96,150.15h-15.13s-5.2-99.32-30.74-122.5l-37.99-27.65h76.9Z"/><path class="cls-12_augmented-reality-1-20 targetColor" d="m230.34,116.71s25.79,35.86,31.03,66.12l31.36-58.71,11.11,7.09s-27.87,91.99-51.45,95.37c-23.58,3.38-42.63-62.05-42.63-62.05l20.57-47.82Z" style="fill: rgb(26, 117, 232);"/><path class="cls-13_augmented-reality-1-20" d="m230.34,116.71s25.79,35.86,31.03,66.12l31.36-58.71,11.11,7.09s-27.87,91.99-51.45,95.37c-23.58,3.38-42.63-62.05-42.63-62.05l20.57-47.82Z"/><path class="cls-1_augmented-reality-1-20" d="m294.92,125.51s7.37-16.16,13.19-16.64c5.81-.48-4.26,22.34-4.26,22.34l-8.93-5.69Z"/><path class="cls-12_augmented-reality-1-20 targetColor" d="m182.8,147.32c2.15,27.13-1.18,131.47-2.77,177.32l-44.72,5.75s-33.19-154.59-24.3-189.02c8.89-34.43,67.52-38.53,67.52-38.53,0,0,1.48,9.4,4.27,44.48Z" style="fill: rgb(26, 117, 232);"/><path class="cls-12_augmented-reality-1-20 targetColor" d="m232.63,316.5l-29.71,4.59c3.13-26.58,6.87-73.18,6.87-97.4,0-74.91-12.26-121.46-12.26-121.46,88.75,5.84,35.1,214.27,35.1,214.27Z" style="fill: rgb(26, 117, 232);"/><path class="cls-1_augmented-reality-1-20" d="m198.16,61.29s2.14,10.28,1.21,17.4c-.38,2.89-3.07,4.95-5.95,4.53-3.58-.52-8.27-2.26-10.08-7.63l-4.2-8.74s-2.44-5.57,2.94-10.49c5.38-4.93,15.09-1.4,16.08,4.93Z"/><polygon class="cls-1_augmented-reality-1-20" points="179.9 68.44 178.53 102.83 197.54 102.23 190.9 77.45 179.9 68.44"/><path class="cls-14_augmented-reality-1-20" d="m195.62,62.04c-1.81.31-5.16.7-9.7.4,0,0,3.8,4.15,1.13,9.54-2.67,5.39-8.22,3.84-8.22,3.84l-1.42-13.42c-.54-3.9,1.08-7.79,4.26-10.11,1.3-.95,2.74-1.91,4.21-2.72,3.67-2,9.63-.1,12.78-3.12,1.38-1.32,3.68-.67,4.18,1.17,1.09,4,1.12,10.5-4.13,13.39-.96.53-2.02.83-3.1,1.02Z"/><path class="cls-1_augmented-reality-1-20" d="m188.13,71.54s-.55-4.01-3.53-3.34c-2.98.67-2.21,6.46,1.95,6.52l1.58-3.18Z"/><path class="cls-1_augmented-reality-1-20" d="m199.17,67.84l3.38,3.67c.84.91.44,2.38-.73,2.74l-3.9,1.22,1.25-7.64Z"/><path class="cls-9_augmented-reality-1-20" d="m192.58,82.81s-3.57-.3-6.54-2.92c0,0,1.01,6.22,8.61,11.58l-2.07-8.66Z"/><path class="cls-15_augmented-reality-1-20" d="m145.22,126.24s31.2,11.87,14.18,59.81c-17.03,47.94-10.82,53.59,7.25,50.46,10.82-1.87,20.41-20.07,23.79-29.11,2.97-7.92,4.68-18.83,13.89-4.51,3.49,5.42,3.29,12.88,2.86,18.95-.92,12.77-9.72,42.04-31.92,49.99-22.2,7.95-46.96-12.14-46.96-12.14l-10.21-28.23v-64.64s27.13-40.59,27.13-40.59Z"/><polyline class="cls-17_augmented-reality-1-20" points="192.31 226.7 209.78 158.65 254.92 167.42 239.21 233.56 194.66 226.7"/><path class="cls-12_augmented-reality-1-20 targetColor" d="m141.99,123.23c-6.37-4.99-15.51-4.24-21.16,1.55-10.56,10.81-25.27,35.07-18.98,83.51,9.46,72.83,59.74,71.78,101.14-2.36l-12.62-8.04s-37.91,52.5-54.47,26.49c-15.02-23.6,35.3-78.28,6.09-101.14Z" style="fill: rgb(26, 117, 232);"/><path class="cls-13_augmented-reality-1-20" d="m141.99,123.23c-6.37-4.99-15.51-4.24-21.16,1.55-10.56,10.81-25.27,35.07-18.98,83.51,9.46,72.83,59.74,71.78,101.14-2.36l-12.62-8.04s-37.91,52.5-54.47,26.49c-15.02-23.6,35.3-78.28,6.09-101.14Z"/><path class="cls-1_augmented-reality-1-20" d="m192.31,199.12s4.79-12.42,10.69-13.06c5.9-.63-2.54,18.25-2.54,18.25l-8.15-5.19Z"/><rect class="cls-14_augmented-reality-1-20" x="188.7" y="62.5" width="16.52" height="9.14" rx="1.95" ry="1.95"/><rect class="cls-17_augmented-reality-1-20" x="190.95" y="63.66" width="13.56" height="5.81" rx="1.16" ry="1.16"/><rect class="cls-14_augmented-reality-1-20" x="186.63" y="66.02" width="3.93" height="2.1"/></g><g id="screens_augmented-reality-1-20"><g class="cls-4_augmented-reality-1-20"><polygon class="cls-7_augmented-reality-1-20" points="410.43 336.64 305.45 336.64 325.86 269.73 430.84 269.73 410.43 336.64"/><polygon class="cls-15_augmented-reality-1-20" points="344.53 323.1 330.29 323.1 334.63 308.85 348.87 308.85 344.53 323.1"/><polygon class="cls-15_augmented-reality-1-20" points="368.53 323.1 354.29 323.1 363.3 293.56 377.54 293.56 368.53 323.1"/><polygon class="cls-15_augmented-reality-1-20" points="393.85 323.1 379.61 323.1 391.76 283.27 406 283.27 393.85 323.1"/></g><g class="cls-6_augmented-reality-1-20"><polygon class="cls-7_augmented-reality-1-20" points="371.79 297.73 255.97 297.73 278.2 224.03 394.03 224.03 371.79 297.73"/><ellipse class="cls-15_augmented-reality-1-20" cx="326.52" cy="258.9" rx="31.6" ry="23.4" transform="translate(-89.85 275.62) rotate(-40.71)"/><path class="cls-13_augmented-reality-1-20" d="m334.72,231.71l-8.2,27.19,28.3-5.54s2.87-21.83-20.09-21.65Z"/><path class="cls-2_augmented-reality-1-20" d="m326.52,258.9l-21.93,22.6s11.74,11.6,33.51-2.04c0,0,14.72-8.75,16.73-26.11l-28.3,5.54Z"/></g><g class="cls-6_augmented-reality-1-20"><polygon class="cls-7_augmented-reality-1-20" points="394.46 209.42 247.19 209.35 286.98 94.64 434.25 94.72 394.46 209.42"/><polygon class="cls-13_augmented-reality-1-20" points="393.95 139 295.41 138.95 304.91 111.56 403.45 111.61 393.95 139"/><polygon class="cls-15_augmented-reality-1-20" points="393.95 139 357.36 138.98 366.86 111.6 403.45 111.61 393.95 139"/><polygon class="cls-2_augmented-reality-1-20" points="384.21 167.1 285.67 167.05 289.44 156.16 387.98 156.21 384.21 167.1"/><polygon class="cls-3_augmented-reality-1-20" points="375.65 191.76 277.11 191.71 280.89 180.83 379.43 180.88 375.65 191.76"/></g></g></svg>