<svg id="_0099_ar" xmlns="http://www.w3.org/2000/svg" viewBox="0 0 500 500" data-imageid="augmented-reality-5" imageName="Augmented Reality" class="illustrations_image" style="width: 179px;"><defs><style>.cls-1_augmented-reality-5{fill:#fff;}.cls-2_augmented-reality-5{opacity:.39;}.cls-2_augmented-reality-5,.cls-3_augmented-reality-5,.cls-4_augmented-reality-5,.cls-5_augmented-reality-5,.cls-6_augmented-reality-5,.cls-7_augmented-reality-5,.cls-8_augmented-reality-5,.cls-9_augmented-reality-5,.cls-10_augmented-reality-5{fill:none;}.cls-11_augmented-reality-5{fill:#f4a28c;}.cls-12_augmented-reality-5{fill:#a5a5a5;}.cls-3_augmented-reality-5{opacity:.58;}.cls-13_augmented-reality-5{fill:#ce8172;}.cls-14_augmented-reality-5{fill:#e6e6e6;}.cls-4_augmented-reality-5{opacity:.03;}.cls-5_augmented-reality-5{opacity:.48;}.cls-6_augmented-reality-5{opacity:.73;}.cls-7_augmented-reality-5{opacity:.08;}.cls-8_augmented-reality-5{opacity:.36;}.cls-9_augmented-reality-5{opacity:.31;}.cls-10_augmented-reality-5{opacity:.3;}.cls-15_augmented-reality-5{fill:#24285b;}.cls-16_augmented-reality-5{fill:#000001;}.cls-17_augmented-reality-5{fill:#ffd200;}.cls-18_augmented-reality-5{fill:#68e1fd;}</style></defs><g id="sd_augmented-reality-5" class="cls-4_augmented-reality-5"><ellipse class="cls-16_augmented-reality-5" cx="305.26" cy="435.4" rx="180.5" ry="25.19"/></g><g id="plant_augmented-reality-5"><g class="cls-3_augmented-reality-5"><path class="cls-18_augmented-reality-5 targetColor" d="m178.67,409.65s-15.32-4.19-18.66-18.45c0,0,23.74-4.8,24.42,19.71l-5.76-1.26Z" style="fill: rgb(26, 117, 232);"/></g><g class="cls-6_augmented-reality-5"><path class="cls-18_augmented-reality-5 targetColor" d="m180.54,408.13s-10.71-16.93-1.28-32.75c0,0,18.05,11.47,10.03,32.79l-8.75-.04Z" style="fill: rgb(26, 117, 232);"/></g><path class="cls-18_augmented-reality-5 targetColor" d="m183.3,408.14s5.66-17.87,22.76-21.26c0,0,3.21,11.61-11.07,21.31l-11.68-.05Z" style="fill: rgb(26, 117, 232);"/><polygon class="cls-15_augmented-reality-5" points="172.19 407.74 175.3 428.99 194.86 429.07 197.74 407.85 172.19 407.74"/></g><g id="person_augmented-reality-5"><path class="cls-18_augmented-reality-5 targetColor" d="m265.84,422.59s-6.06,4.26-11.51,1.07c-5.45-3.18-10.34.9-6.63,5.47,3.71,4.57,19.83,7.01,19.83,7.01l6.2-9.72-7.89-3.83Z" style="fill: rgb(26, 117, 232);"/><path class="cls-18_augmented-reality-5 targetColor" d="m394.32,423.48s.69,7.37-4.77,10.53c-5.47,3.16-4.34,9.43,1.46,8.47s15.91-13.75,15.91-13.75l-5.37-10.21-7.23,4.95Z" style="fill: rgb(26, 117, 232);"/><path class="cls-15_augmented-reality-5" d="m323.53,289.23l-64.12,133.07,17.81,8.16s56.41-112.14,98.66-119.96l-52.36-21.27Z"/><path class="cls-11_augmented-reality-5" d="m310.82,152.81s-29.09,27.81-34.96,56.44c-5.87,28.63-52.07,41.91-96.08,26.47l-4.4,18.3s93.88,56.49,148.15-31.53c54.27-88.02-12.71-69.68-12.71-69.68Z"/><path class="cls-11_augmented-reality-5" d="m334.34,98.96s-2.17,7.83-1.82,13.36c.14,2.25,2.11,3.98,4.36,3.8,2.79-.22,6.49-1.32,8.16-5.38l3.68-6.53s2.16-4.17-1.73-8.25c-3.9-4.07-11.57-1.85-12.66,2.99Z"/><polygon class="cls-11_augmented-reality-5" points="347.2 105.84 353.58 131.67 338.96 136.3 340.24 114.87 347.2 105.84"/><path class="cls-11_augmented-reality-5" d="m333.23,103.96l-2.8,2.66c-.69.66-.46,1.81.43,2.15l2.95,1.14-.58-5.96Z"/><g class="cls-9_augmented-reality-5"><path class="cls-13_augmented-reality-5" d="m340.2,115.42s4.94-2.28,6.29-4.3c0,0-.28,10.62-6.85,13.72l.56-9.42Z"/></g><path class="cls-11_augmented-reality-5" d="m342.42,106.33s.63-3.06,2.9-2.4c2.27.67,1.38,5.1-1.84,4.93l-1.06-2.53Z"/><path class="cls-15_augmented-reality-5" d="m351.81,102.41l-1.69,2.93s-2.05,7.51-7.04,11.39c-5,3.88-12.03,3.08-12.63-2.2-.69-6.06,3.37-4.6,8.8-4.86,5.43-.25,4.6-7.53,4.6-7.53-2.39.03-4.04-1.24-5.13-2.69-1.53-2.01-3.48-3.64-5.81-4.62-4.82-2.03,1.05-8.34,1.05-8.34-3.22-1.78-.75-5.53,2.37-6.68,3.12-1.15,4.01,2.51,6.37,3.21,2.37.7,1.41-3.07,6-2.14,4.59.93,2.1,4.31,4.86,6.79,0,0,3.17-2.41,5.62,3.09,1.4,3.14.68,4.62-.72,5.43-2.68,1.56-5.08,3.55-6.63,6.23Z"/><path class="cls-18_augmented-reality-5 targetColor" d="m320.85,142.29s-28.7,19.66-48.66,62.52c-5.56,11.95-14.58,22.1-26.26,28.21-1.91,1-3.92,1.92-6.01,2.71l8.07,35.87s51.87,1.5,82.05-49.11c30.17-50.61-9.18-80.2-9.18-80.2Z" style="fill: rgb(26, 117, 232);"/><g class="cls-7_augmented-reality-5"><path class="cls-16_augmented-reality-5" d="m304.05,157.43s-14.7,16.07-21.63,28.36c0,0-3.49,44.4,18.62,68.24l6.62-5.06,20.63-29.78-24.25-61.76Z"/></g><path class="cls-11_augmented-reality-5" d="m347.09,103.16s3.94-2.33,5.41.81c1.47,3.14-2.94,5.6-5.93,3.69,0,0,1.16-2.02.52-4.49Z"/><path class="cls-18_augmented-reality-5 targetColor" d="m330.03,139.13l23.55-7.46s99.03-29.35,101.23,23.29c2.03,48.61-30.88,80.46-36.01,134.27h-95.27s-64.74-132.98,6.5-150.1Z" style="fill: rgb(26, 117, 232);"/><g class="cls-7_augmented-reality-5"><path class="cls-16_augmented-reality-5" d="m403.76,136.3s-26.66,25.51-11.29,57.22c15.38,31.71,10.27,52.81-13.2,48.41-23.47-4.4-50.97-19.8-50.97-19.8,0,0-16.14,13.94,0,22,16.14,8.07,44.47,17.32,34.14,45.11h56.36l3.99-20.08,22.85-41.39v-16.22l-24.94-62.77-16.95-12.48Z"/></g><g class="cls-2_augmented-reality-5"><path class="cls-1_augmented-reality-5" d="m239.92,235.73l8.07,35.87s12.01-.28,20.33-2.75l-14.2-41.09s-4.82,4.75-14.2,7.97Z"/></g><path class="cls-15_augmented-reality-5" d="m323.53,289.23h95.27l-34.25,55.9c-8.19,13.36-8.03,30.22.4,43.43l18.53,29.02-11,8.8-31.54-36.34c-12.59-14.51-17.54-34.13-13.34-52.88l5.98-26.67-30.05-21.27Z"/><path class="cls-11_augmented-reality-5" d="m403.22,148.02c-.18-15.13,15.1-25.46,29.13-19.78,17.62,7.14,39.41,28.03,44.46,86.8,8.8,102.3-137.17,20.68-137.17,20.68l5.1-15.22s44.41,6.86,75.69,5.86c8.74-.28,13.67-10.12,8.57-17.22-10.73-14.91-25.51-39.34-25.78-61.14Z"/><path class="cls-18_augmented-reality-5 targetColor" d="m408.42,130.81s18.15-18.34,43.46,8.07c25.3,26.4,27.87,82.51,27.87,82.51,0,0,9.53,50.97-48.41,47.67l-15.41-42.64s21.27-3.47,8.44-19.47c0,0-40.34-55.97-15.95-76.14Z" style="fill: rgb(26, 117, 232);"/><polygon class="cls-18_augmented-reality-5 targetColor" points="415.94 226.42 404.21 224.69 417.16 269.21 431.34 269.06 415.94 226.42" style="fill: rgb(26, 117, 232);"/><rect class="cls-17_augmented-reality-5" x="314.93" y="178.48" width="23.27" height="41.52"/><g class="cls-2_augmented-reality-5"><polygon class="cls-1_augmented-reality-5" points="415.94 226.42 404.21 224.69 417.16 269.21 431.34 269.06 415.94 226.42"/></g><path class="cls-11_augmented-reality-5" d="m344.74,220.51s-10.7-13.67-17.55-11.72c-6.85,1.96-14.71,19.15,12.45,26.93l5.1-15.22Z"/><path class="cls-11_augmented-reality-5" d="m179.78,235.73s-11.55-11.74-20.84-11.04c-9.29.7-15.04,21.3,16.44,29.34l4.4-18.3Z"/><rect class="cls-15_augmented-reality-5" x="131.5" y="202.9" width="76.28" height="27.87"/><rect class="cls-1_augmented-reality-5" x="131.5" y="212.77" width="26.28" height="7.23"/><circle class="cls-18_augmented-reality-5 targetColor" cx="191.85" cy="216.38" r="5.46" style="fill: rgb(26, 117, 232);"/></g><g id="ar_objects_augmented-reality-5"><g class="cls-10_augmented-reality-5"><path class="cls-14_augmented-reality-5" d="m139.77,202.9s5.63-18.65-18.76-24.48c-24.38-5.83-64.6,26.31-85.59-4.62-20.99-30.94-18.07-62.34,23.9-74.33,41.97-11.99-1.64-63.87,71.75-64.45,73.4-.58,48.91,37.29,90.89,34.68,41.97-2.62,74.62,24.58,50.13,57.04-24.48,32.45-78.59,25.46-71.36,76.17h-60.97Z"/></g><circle class="cls-12_augmented-reality-5" cx="38.31" cy="175.61" r="6.9"/><circle class="cls-12_augmented-reality-5" cx="210.5" cy="37.43" r="6.9"/><g class="cls-8_augmented-reality-5"><circle class="cls-12_augmented-reality-5" cx="38.31" cy="55.88" r="6.9"/></g><g class="cls-8_augmented-reality-5"><circle class="cls-12_augmented-reality-5" cx="260.44" cy="184.85" r="6.9"/></g><circle class="cls-18_augmented-reality-5 targetColor" cx="114.35" cy="101.4" r="50.13" style="fill: rgb(26, 117, 232);"/><circle class="cls-17_augmented-reality-5" cx="239.27" cy="132" r="27.58"/><path class="cls-18_augmented-reality-5 targetColor" d="m64.5,96.13s-29.45,8.85-25.89,29.03c3.55,20.18,100.74,9.32,133.36-4.15,32.61-13.47,30.4-32.04-10.46-37.1,0,0,8.19,17.84-17.34,23.43-30.03,6.58-84.5,19.36-79.66-11.21Z" style="fill: rgb(26, 117, 232);"/><g class="cls-5_augmented-reality-5"><path class="cls-1_augmented-reality-5" d="m64.5,96.13s-29.45,8.85-25.89,29.03c3.55,20.18,100.74,9.32,133.36-4.15,32.61-13.47,30.4-32.04-10.46-37.1,0,0,8.19,17.84-17.34,23.43-30.03,6.58-84.5,19.36-79.66-11.21Z"/></g><g class="cls-7_augmented-reality-5"><ellipse class="cls-16_augmented-reality-5" cx="96.15" cy="69.69" rx="11.05" ry="8.37" transform="translate(-15.31 28.72) rotate(-15.75)"/></g><g class="cls-7_augmented-reality-5"><ellipse class="cls-16_augmented-reality-5" cx="121.02" cy="65.06" rx="5.84" ry="7.71" transform="translate(18.01 155.98) rotate(-69.7)"/></g><g class="cls-7_augmented-reality-5"><ellipse class="cls-16_augmented-reality-5" cx="251.04" cy="122.23" rx="5.68" ry="7.51" transform="translate(4.48 253.26) rotate(-53.95)"/></g><g class="cls-7_augmented-reality-5"><ellipse class="cls-16_augmented-reality-5" cx="113.63" cy="80.8" rx="5.83" ry="4.41" transform="translate(-17.67 33.88) rotate(-15.75)"/></g><g class="cls-7_augmented-reality-5"><ellipse class="cls-16_augmented-reality-5" cx="233.6" cy="117.94" rx="5.67" ry="4.29"/></g><circle class="cls-15_augmented-reality-5" cx="179.88" cy="168.71" r="13.07"/></g></svg>