<svg version="1.1" id="Layer_1" xmlns="http://www.w3.org/2000/svg" xmlns:xlink="http://www.w3.org/1999/xlink" x="0px" y="0px" viewBox="0 0 500 500" style="width: 144px;" xml:space="preserve" data-imageid="coworking-31" imageName="Coworking" class="illustrations_image">
<style type="text/css">
	.st0_coworking-31{fill:#D1D3D4;}
	.st1_coworking-31{fill:#231F20;}
	.st2_coworking-31{fill:#FFFFFF;}
	.st3_coworking-31{fill:#68E1FD;}
	.st4_coworking-31{fill:none;}
</style>
<path id="Floor_coworking-31" class="st0_coworking-31" d="M457.3,367.4H42.7c-0.4,0-0.7-0.3-0.7-0.7c0-0.4,0.3-0.7,0.7-0.7h414.7c0.4,0,0.7,0.3,0.7,0.7&#10;&#9;C458,367.1,457.7,367.4,457.3,367.4z"/>
<g id="Table_coworking-31">
	<rect x="148.1" y="259.4" class="st1_coworking-31" width="5.1" height="161.5"/>
	<path class="st1_coworking-31" d="M153.2,421.5h-5.1c-0.4,0-0.7-0.3-0.7-0.7l0,0V259.4c0-0.4,0.3-0.7,0.7-0.7c0,0,0,0,0,0h5.1&#10;&#9;&#9;c0.4,0,0.7,0.3,0.7,0.7l0,0v161.5C153.9,421.2,153.6,421.5,153.2,421.5z M148.8,420.1h3.7V260.1h-3.7V420.1z"/>
	<rect x="340.1" y="259.4" class="st1_coworking-31" width="5.1" height="161.5"/>
	<path class="st1_coworking-31" d="M345.2,421.5h-5.1c-0.4,0-0.7-0.3-0.7-0.7v0V259.4c0-0.4,0.3-0.7,0.7-0.7h0h5.1c0.4,0,0.7,0.3,0.7,0.7v0v161.5&#10;&#9;&#9;C345.9,421.2,345.6,421.5,345.2,421.5z M340.8,420.1h3.7V260.1h-3.7V420.1z"/>
	<rect x="149.3" y="382.7" class="st1_coworking-31" width="191.1" height="5.1"/>
	<path class="st1_coworking-31" d="M340.4,388.5H149.3c-0.4,0-0.7-0.3-0.7-0.7l0,0v-5.1c0-0.4,0.3-0.7,0.7-0.7c0,0,0,0,0,0h191.1&#10;&#9;&#9;c0.4,0,0.7,0.3,0.7,0.7v0v5.1C341.1,388.1,340.8,388.5,340.4,388.5L340.4,388.5z M150,387.1h189.7v-3.7H150V387.1z"/>
	<path class="st2_coworking-31" d="M139.5,250.8h214.3c2.3,0,4.2,1.9,4.2,4.2v0.2c0,2.3-1.9,4.2-4.2,4.2H139.5c-2.3,0-4.2-1.9-4.2-4.2v-0.2&#10;&#9;&#9;C135.4,252.6,137.2,250.8,139.5,250.8z"/>
	<path class="st0_coworking-31" d="M353.8,260.1H139.5c-2.7,0-4.9-2.2-4.9-4.9V255c0-2.7,2.2-4.9,4.9-4.9h214.3c2.7,0,4.9,2.2,4.9,4.9v0.2&#10;&#9;&#9;C358.6,257.9,356.5,260.1,353.8,260.1z M139.5,251.5c-1.9,0-3.5,1.6-3.5,3.5v0.2c0,1.9,1.6,3.5,3.5,3.5l0,0h214.3&#10;&#9;&#9;c1.9,0,3.5-1.6,3.5-3.5l0,0V255c0-1.9-1.6-3.5-3.5-3.5L139.5,251.5z"/>
	<path class="st0_coworking-31" d="M171,245.1h-3.5c-0.4,0-0.7-0.3-0.7-0.7c0-0.4,0.3-0.7,0.7-0.7h3.5c1.6,0,2.9-1.3,2.9-2.9&#10;&#9;&#9;c0-1.6-1.3-2.9-2.9-2.9c-0.4,0-0.7-0.3-0.7-0.7c0-0.4,0.3-0.7,0.7-0.7c2.4,0,4.3,1.9,4.3,4.3S173.4,245.1,171,245.1L171,245.1z"/>
	<path class="st2_coworking-31" d="M177.6,246.7c0,2.2-7.6,4.1-17,4.1s-17-1.8-17-4.1H177.6z"/>
	<path class="st0_coworking-31" d="M160.6,251.5c-7.1,0-17.7-1.3-17.7-4.8c0-0.4,0.3-0.7,0.7-0.7h34c0.4,0,0.7,0.3,0.7,0.7&#10;&#9;&#9;C178.3,250.2,167.7,251.5,160.6,251.5z M144.9,247.4c1.6,1.2,7,2.6,15.8,2.6s14.1-1.5,15.8-2.6H144.9z"/>
	<polygon class="st2_coworking-31" points="169.3,246.7 151.9,246.7 148.6,233.7 172.7,233.7 &#9;"/>
	<path class="st0_coworking-31" d="M169.3,247.4h-17.4c-0.3,0-0.6-0.2-0.7-0.5l-3.3-13c-0.1-0.2,0-0.4,0.1-0.6c0.1-0.2,0.3-0.3,0.6-0.3h24.1&#10;&#9;&#9;c0.4,0,0.7,0.3,0.7,0.7c0,0.1,0,0.1,0,0.2l-3.3,13C169.9,247.2,169.7,247.4,169.3,247.4z M152.5,246h16.3l3-11.6h-22.3L152.5,246z"/>
</g>
<g id="Laptop_coworking-31">
	<polygon class="st1_coworking-31" points="241.6,250.8 185.1,250.8 183.8,245.9 172.7,203.6 229.2,203.6 240.4,245.9 &#9;"/>
	<path class="st1_coworking-31" d="M241.6,251.5h-56.6c-0.3,0-0.6-0.2-0.7-0.5L172,203.8c-0.1-0.4,0.1-0.8,0.5-0.9c0.1,0,0.1,0,0.2,0h56.6&#10;&#9;&#9;c0.3,0,0.6,0.2,0.7,0.5l12.4,47.2c0.1,0.2,0,0.4-0.1,0.6C242,251.4,241.8,251.5,241.6,251.5z M185.6,250.1h55.1l-12-45.8h-55.2&#10;&#9;&#9;L185.6,250.1z"/>
	<polygon class="st2_coworking-31" points="241.6,250.8 185.1,250.8 183.8,245.9 240.4,245.9 &#9;"/>
	<path class="st0_coworking-31" d="M241.6,251.5h-56.6c-0.3,0-0.6-0.2-0.7-0.5l-1.3-4.9c-0.1-0.4,0.1-0.8,0.5-0.8c0.1,0,0.1,0,0.2,0h56.6&#10;&#9;&#9;c0.3,0,0.6,0.2,0.7,0.5l1.3,4.9c0.1,0.2,0,0.4-0.1,0.6C242,251.4,241.8,251.5,241.6,251.5z M185.6,250.1h55.1l-0.9-3.5h-55.1&#10;&#9;&#9;L185.6,250.1z"/>
</g>
<g id="Character_coworking-31">
	<path class="st2_coworking-31" d="M320.5,220.2c0,0,11.7,26.6,7.4,29.4s-30.8,0-30.8,0l2.3-34.4"/>
	<path class="st1_coworking-31" d="M317.8,251.5c-8.5,0-19-1.1-20.8-1.2c-0.4,0-0.6-0.4-0.6-0.8l2.3-34.4c0.1-0.4,0.4-0.6,0.8-0.6&#10;&#9;&#9;c0.3,0.1,0.6,0.3,0.6,0.7l-2.2,33.7c7.8,0.8,26.4,2.2,29.7,0c2.6-1.7-2.9-17.7-7.6-28.5c-0.1-0.4,0-0.8,0.4-0.9&#10;&#9;&#9;c0.3-0.2,0.8,0,0.9,0.3c0,0,0,0,0,0c2,4.5,11.7,27.2,7.1,30.2C326.7,251.1,322.5,251.5,317.8,251.5z"/>
	<path class="st2_coworking-31" d="M226.6,220.2c0,0-11.4,20.9-8.7,27.1s45.9,3,45.9,3v-28.6L226.6,220.2z"/>
	<path class="st1_coworking-31" d="M242.1,251.8c-11.5,0-23.4-0.9-24.9-4.3c-2.8-6.4,8.3-26.8,8.7-27.7c0.1-0.2,0.4-0.4,0.6-0.4l37.2,1.5&#10;&#9;&#9;c0.4,0,0.7,0.3,0.7,0.7v28.6c0,0.4-0.3,0.7-0.6,0.7C261.7,251.1,252.1,251.8,242.1,251.8z M227,220.9c-3.2,6-10.5,21.4-8.5,26.1&#10;&#9;&#9;c1.8,4.1,28,3.8,44.6,2.7v-27.3L227,220.9z"/>
	<path class="st1_coworking-31" d="M240.8,244.8c-0.1,0-0.2,0-0.2,0c-0.4-0.1-0.6-0.5-0.4-0.9c0,0,0,0,0,0l7.1-20.4c0.1-0.4,0.5-0.6,0.9-0.4&#10;&#9;&#9;c0,0,0,0,0,0c0.4,0.1,0.5,0.5,0.4,0.9c0,0,0,0,0,0l-7.1,20.4C241.4,244.6,241.1,244.8,240.8,244.8z"/>
	<path class="st1_coworking-31" d="M243.7,394.8c0,0-20.7,12.2-19.5,15.3s39,0,39,0v-17.4L243.7,394.8z"/>
	<path class="st1_coworking-31" d="M236.1,412.2c-9.7,0-12.1-1-12.4-1.9c-1.4-3.4,13.4-12.4,19.8-16.1c0.1,0,0.2-0.1,0.3-0.1l19.5-2.1&#10;&#9;&#9;c0.2,0,0.4,0,0.5,0.2c0.1,0.1,0.2,0.3,0.2,0.5v17.4c0,0.4-0.3,0.7-0.6,0.7C250.7,411.8,242,412.2,236.1,412.2z M244,395.5&#10;&#9;&#9;c-10.7,6.3-19.6,13-19,14.3c1.3,1.6,20,1,37.6-0.4v-15.9L244,395.5z"/>
	<path class="st2_coworking-31" d="M254.8,312.9c-1.1,1.1-12.2,27-12.8,31s1.7,50.9,1.7,50.9l19.5-2.1c0,0,0-45.1,1.9-50.6s17.2-25.4,17.2-25.4&#10;&#9;&#9;L254.8,312.9z"/>
	<path class="st1_coworking-31" d="M243.7,395.5c-0.2,0-0.3-0.1-0.5-0.2c-0.1-0.1-0.2-0.3-0.2-0.5c-0.1-1.9-2.2-46.9-1.7-51s11.7-30.1,13-31.5&#10;&#9;&#9;c0.2-0.2,0.4-0.2,0.6-0.2l27.5,3.8c0.2,0,0.5,0.2,0.5,0.4c0.1,0.2,0.1,0.5-0.1,0.7c-0.1,0.2-15.2,19.8-17.1,25.2&#10;&#9;&#9;s-1.9,49.9-1.9,50.4c0,0.4-0.3,0.7-0.6,0.7L243.7,395.5L243.7,395.5z M255.2,313.7c-1.8,3-11.8,26.3-12.4,30.4&#10;&#9;&#9;c-0.5,3.7,1.4,44,1.6,50l18.2-2c0-5.7,0.1-44.9,2-50.2c1.7-4.9,13.5-20.6,16.5-24.6L255.2,313.7z"/>
	<polygon class="st1_coworking-31" points="299.4,280.1 279,335.8 246.8,317.1 262.8,275.5 &#9;"/>
	<path class="st1_coworking-31" d="M279,336.5c-0.1,0-0.2,0-0.4-0.1l-32.2-18.7c-0.3-0.2-0.4-0.5-0.3-0.9l16.1-41.7c0.1-0.3,0.4-0.5,0.7-0.4&#10;&#9;&#9;l36.5,4.6c0.2,0,0.4,0.2,0.5,0.3c0.1,0.2,0.1,0.4,0.1,0.6l-20.4,55.8c-0.1,0.2-0.2,0.3-0.4,0.4C279.2,336.5,279.1,336.5,279,336.5z&#10;&#9;&#9; M247.7,316.8l31,18l19.8-54.1l-35.1-4.4L247.7,316.8z"/>
	<path class="st2_coworking-31" d="M230.2,261.5c0,0-21.3-1.6-28.3,2.8c-9.7,6,33.8,79.7,33.8,79.7l14.3-7.6L231.9,291l7.4-2L230.2,261.5z"/>
	<path class="st1_coworking-31" d="M235.8,344.7c-0.2,0-0.5-0.1-0.6-0.3c-4.5-7.6-43.6-74.5-33.6-80.6c7.2-4.4,27.9-3,28.8-2.9&#10;&#9;&#9;c0.3,0,0.5,0.2,0.6,0.5l9.1,27.5c0.1,0.2,0.1,0.4,0,0.5c-0.1,0.2-0.3,0.3-0.4,0.3l-6.6,1.8l17.8,44.6c0.1,0.3,0,0.7-0.3,0.9&#10;&#9;&#9;l-14.2,7.6C236,344.7,235.9,344.7,235.8,344.7z M221.7,261.9c-6.6,0-15.4,0.5-19.4,3c-1.7,1-3.7,7.1,13.5,41.2&#10;&#9;&#9;c8.6,17,18.3,33.7,20.2,37l13.1-7l-17.8-44.7c-0.1-0.2-0.1-0.4,0-0.6c0.1-0.2,0.3-0.3,0.4-0.4l6.7-1.8l-8.7-26.4&#10;&#9;&#9;C228.6,262.1,225.5,261.9,221.7,261.9L221.7,261.9z"/>
	<path class="st1_coworking-31" d="M311,265.2c0,0,5.7,12.7-0.4,20.7s-78.7,5.1-78.7,5.1l-7.3-31.4l26.3-0.2L311,265.2z"/>
	<path class="st1_coworking-31" d="M260,292.2c-14.6,0-26.9-0.5-28.1-0.5c-0.3,0-0.6-0.2-0.7-0.5l-7.2-31.4c0-0.2,0-0.4,0.1-0.6&#10;&#9;&#9;c0.1-0.2,0.3-0.3,0.5-0.3l26.3-0.2l60.1,5.8c0.2,0,0.5,0.2,0.6,0.4c0.2,0.5,5.8,13.2-0.5,21.5C307.4,291.2,281.3,292.2,260,292.2z&#10;&#9;&#9; M232.5,290.4c20.5,0.8,72.8,1.4,77.5-4.8c5.2-6.9,1.3-17.5,0.5-19.7l-59.6-5.8l-25.3,0.2L232.5,290.4z"/>
	<path class="st2_coworking-31" d="M277.5,158.5c0.9-0.5,1.7-1.3,2.4-2.1c0.9-1.3,1.5-2.7,1.9-4.2c2-7.7,1.8-15.9-0.7-23.5c-1-3.3-2.5-7.8-5-10.3&#10;&#9;&#9;c-1.2-1.1-2.7-1.8-4.2-2c-0.4,0-4.7,0.9-4.2,1.3c-3.9-3.2-9-4.5-13.9-3.4c-4.1,0.9-8.8,3.5-10.9,7.2c-0.9,1.5-1.1,2.7-2.8,3.6&#10;&#9;&#9;c-2.2,1.2-4.8,1.5-7.2,0.8c-0.6-0.1-4.4-0.8-4.4-1.3c0.7,4.9,4.1,8.9,8.9,10.3c-2.5,0.6-5.2,0.6-7.7,0.1c3.2,4.9,9.3,7.2,14.9,5.5&#10;&#9;&#9;c2.3,2.3,5,4.1,7.3,6.5s4.7,5.3,7.7,7.3C264,157.5,272.1,161.6,277.5,158.5z"/>
	<path class="st1_coworking-31" d="M273,160.4c-5.4,0-11.3-3.5-14-5.4c-2.6-1.9-4.9-4.1-6.9-6.5l-0.9-0.9c-1.2-1.3-2.5-2.5-3.9-3.5&#10;&#9;&#9;c-1-0.9-2.1-1.7-3.1-2.7c-5.9,1.5-12-0.9-15.3-5.9c-0.2-0.2-0.2-0.5,0-0.8c0.2-0.2,0.4-0.3,0.7-0.3c1.6,0.4,3.3,0.5,4.9,0.3&#10;&#9;&#9;c-3.8-2-6.4-5.7-6.9-9.9l0,0c-0.1-0.4,0.2-0.7,0.6-0.8c0,0,0,0,0,0c0.3,0,0.5,0.1,0.7,0.3c1.1,0.4,2.2,0.7,3.4,0.9l0.6,0.1&#10;&#9;&#9;c2.2,0.6,4.6,0.3,6.7-0.8c0.9-0.5,1.6-1.3,2-2.3c0.2-0.3,0.3-0.7,0.5-1c2.3-4.1,7.4-6.7,11.4-7.6c4.9-1,10,0.1,14,3.2&#10;&#9;&#9;c1.4-0.6,2.8-0.9,4.3-1.1c1.7,0.2,3.4,1,4.6,2.2c2.6,2.6,4.1,7.2,5.2,10.6c2.5,7.7,2.8,16,0.7,23.9c-0.4,1.6-1.1,3.1-2,4.4&#10;&#9;&#9;c-0.7,0.9-1.6,1.7-2.6,2.3C276.4,160,274.7,160.4,273,160.4z M244.4,139.8c0.2,0,0.4,0.1,0.5,0.2c1,1,2.1,1.9,3.3,2.9&#10;&#9;&#9;c1.4,1.1,2.8,2.4,4.1,3.7l0.9,0.9c2,2.3,4.2,4.4,6.7,6.3c2.6,1.8,11.7,7.4,17.3,4.1l0.4,0.6l-0.4-0.6c0.8-0.5,1.6-1.2,2.2-2&#10;&#9;&#9;c0.8-1.2,1.4-2.6,1.8-4c2-7.6,1.7-15.6-0.7-23.1c-1-3.2-2.5-7.7-4.8-10.1c-1.1-1-2.4-1.6-3.8-1.8c-1.2,0.2-2.3,0.5-3.5,0.9&#10;&#9;&#9;c0,0.1-0.1,0.1-0.1,0.2c-0.2,0.3-0.7,0.3-1,0.1c0,0,0,0,0,0l0,0c-3.7-3-8.6-4.2-13.3-3.3c-3.7,0.8-8.4,3.2-10.5,6.9&#10;&#9;&#9;c-0.2,0.3-0.4,0.7-0.5,0.9c-0.5,1.2-1.4,2.3-2.5,2.9c-2.4,1.2-5.1,1.6-7.7,0.9l-0.6-0.1c-1.2-0.2-2.1-0.4-2.8-0.6&#10;&#9;&#9;c1,4,4.1,7.2,8.1,8.4c0.3,0.1,0.5,0.4,0.5,0.7c0,0.3-0.2,0.6-0.5,0.7c-2.1,0.5-4.2,0.6-6.3,0.4c3.2,3.8,8.4,5.3,13.1,3.9&#10;&#9;&#9;C244.3,139.8,244.4,139.8,244.4,139.8L244.4,139.8z"/>
	<path class="st2_coworking-31" d="M245.6,150.2c0,0-3.2,10-1.6,11.5s5.2-0.8,5.2-0.8"/>
	<path class="st1_coworking-31" d="M245.5,162.8c-0.7,0-1.4-0.2-1.9-0.6c-1.8-1.6,0.3-9.1,1.4-12.2c0.1-0.4,0.5-0.6,0.9-0.5s0.6,0.5,0.5,0.9l0,0&#10;&#9;&#9;c-1.6,5.1-2.5,10.1-1.8,10.7c1,0.9,3.5-0.4,4.3-0.9c0.3-0.2,0.8-0.1,1,0.2c0,0,0,0,0,0c0.2,0.3,0.1,0.7-0.2,1c0,0,0,0-0.1,0&#10;&#9;&#9;C248.4,162.2,247,162.7,245.5,162.8z"/>
	<path class="st2_coworking-31" d="M243.7,138.7c-2.8,3.9,0,9.8,1.2,13.8c1.6,5.6,3.4,11.2,5.3,16.7c1.2,3.5,10.4,1,11.8-0.5l2.5,14.5l19.5-6.7&#10;&#9;&#9;l-6.3-17.6c0,0-6.3,1.8-11.9-4.4s-9.6-22.1-9.6-22.1S246.3,134.9,243.7,138.7z"/>
	<path class="st1_coworking-31" d="M264.4,183.8c-0.1,0-0.3,0-0.4-0.1c-0.2-0.1-0.3-0.3-0.3-0.5l-2.3-13.4c-2.1,1.1-6.3,2.2-9.1,1.6&#10;&#9;&#9;c-1.3-0.1-2.4-0.9-2.8-2.1c-1.9-5.5-3.6-11.1-5.3-16.7c-0.2-0.7-0.4-1.4-0.7-2.1c-1.3-3.9-2.9-8.7-0.4-12.2l0,0&#10;&#9;&#9;c2.8-4,12.4-6.7,12.8-6.8c0.2,0,0.4,0,0.5,0.1c0.2,0.1,0.3,0.3,0.3,0.4c0,0.2,4,15.8,9.4,21.9c5.3,5.8,11,4.3,11.2,4.2&#10;&#9;&#9;c0.4-0.1,0.7,0.1,0.9,0.4l6.3,17.6c0.1,0.2,0.1,0.4,0,0.5c-0.1,0.2-0.2,0.3-0.4,0.4l-19.5,6.7C264.6,183.7,264.5,183.8,264.4,183.8&#10;&#9;&#9;z M261.9,167.9h0.2c0.3,0.1,0.5,0.3,0.5,0.6l2.4,13.7l18-6.2l-5.8-16.3c-1.8,0.3-7.1,0.6-12-4.8c-5.1-5.6-8.7-18.5-9.6-21.8&#10;&#9;&#9;c-2.2,0.7-9.3,3-11.4,6s-0.6,7.4,0.6,11c0.2,0.8,0.5,1.5,0.7,2.2c1.6,5.6,3.4,11.2,5.2,16.7c0.3,0.7,1,1.1,1.8,1.2&#10;&#9;&#9;c3.1,0.6,8.1-1.1,8.8-1.9C261.4,167.9,261.7,167.9,261.9,167.9L261.9,167.9z"/>
	<path class="st2_coworking-31" d="M249.1,164.9c0,0,5.1,1.5,6.2-3.7"/>
	<path class="st1_coworking-31" d="M250.6,165.8c-0.6,0-1.2-0.1-1.8-0.2c-0.4-0.1-0.6-0.5-0.5-0.9c0.1-0.4,0.5-0.6,0.9-0.5&#10;&#9;&#9;c1.2,0.3,2.5,0.2,3.6-0.4c0.9-0.6,1.6-1.7,1.7-2.8c0.1-0.4,0.4-0.6,0.8-0.6c0.4,0.1,0.6,0.5,0.5,0.8c0,0,0,0,0,0&#10;&#9;&#9;c-0.2,1.5-1.1,2.9-2.4,3.7C252.6,165.5,251.6,165.8,250.6,165.8z"/>
	<path class="st2_coworking-31" d="M257.4,150.8c-0.2-1.5-0.1-2.9,0.5-4.3c0.3-1.1,0.7-2.2,1.3-3.1c0.6-1,1.6-1.6,2.8-1.8c1,0,2,0.4,2.7,1.1&#10;&#9;&#9;c0.7,0.7,1.2,1.6,1.5,2.6c1.4,4.2,0.4,8.9-2.5,12.3l0.2-0.4"/>
	<path class="st1_coworking-31" d="M263.6,158.2c-0.1,0-0.3,0-0.4-0.1c-0.3-0.2-0.4-0.6-0.2-0.9l0.2-0.4c0.1-0.2,0.2-0.3,0.4-0.4&#10;&#9;&#9;c2.4-3.1,3.1-7.2,1.9-10.9c-0.3-0.9-0.7-1.7-1.3-2.3c-0.6-0.6-1.3-0.9-2.1-0.9c-0.9,0.1-1.8,0.7-2.2,1.5c-0.6,0.9-1,1.9-1.2,2.9&#10;&#9;&#9;c-0.5,1.2-0.7,2.6-0.5,3.9c0.1,0.4-0.1,0.7-0.5,0.9c-0.4,0.1-0.8-0.1-0.9-0.5c0,0,0,0,0,0c-0.3-1.6-0.1-3.2,0.5-4.7&#10;&#9;&#9;c0.3-1.2,0.8-2.3,1.4-3.3c0.7-1.2,1.9-1.9,3.3-2.1c1.2,0,2.4,0.4,3.2,1.3c0.8,0.8,1.3,1.8,1.7,2.9c1.5,4.5,0.5,9.5-2.7,13&#10;&#9;&#9;C264,158.2,263.8,158.2,263.6,158.2z"/>
	<ellipse transform="matrix(0.9759 -0.2183 0.2183 0.9759 -25.7994 57.219)" class="st1_coworking-31" cx="246" cy="145.4" rx="0.8" ry="2.1"/>
	<path class="st1_coworking-31" d="M261.9,168.6c3.2-0.9,6.3-2.4,8.9-4.5c0,0-0.4,9.2-7.4,11.5L261.9,168.6z"/>
	<path class="st1_coworking-31" d="M263.4,176.4c-0.1,0-0.2,0-0.3-0.1c-0.2-0.1-0.3-0.3-0.3-0.5l-1.5-7.1c-0.1-0.4,0.1-0.7,0.5-0.8&#10;&#9;&#9;c3.1-0.8,6.1-2.3,8.6-4.3c0.3-0.2,0.8-0.2,1,0.1c0.1,0.1,0.2,0.3,0.2,0.5c0,0.4-0.5,9.7-7.8,12.2&#10;&#9;&#9;C263.5,176.3,263.5,176.4,263.4,176.4z M262.7,169.1l1.2,5.6c4.1-1.8,5.5-6.5,5.9-9C267.6,167.2,265.2,168.3,262.7,169.1z"/>
	<path class="st3_coworking-31 targetColor" d="M314.4,269.4c0,0-1-67.9-11.2-83.5s-36.5-19.1-49.2-9.8s-5,82.5-5,82.5S287.7,269.4,314.4,269.4z" style="fill: rgb(26, 117, 232);"/>
	<path class="st3_coworking-31 targetColor" d="M262.8,172.1c0,0-15.1,1.3-23.8,8.5s-17.8,44.1-17.8,44.1L249,231L262.8,172.1z" style="fill: rgb(26, 117, 232);"/>
	<path class="st1_coworking-31" d="M248.2,332.8l-14.7,8c0,0-6.5,20.1-3.2,30.2c0,0,20.7-22.4,28.9-27.5L248.2,332.8z"/>
	<path class="st1_coworking-31" d="M230.2,371.7h-0.1c-0.2-0.1-0.4-0.2-0.5-0.5c-3.3-10.2,3-29.8,3.3-30.6c0.1-0.2,0.2-0.3,0.3-0.4l14.7-8&#10;&#9;&#9;c0.3-0.1,0.6-0.1,0.8,0.1l10.9,10.6c0.2,0.1,0.2,0.4,0.2,0.6c0,0.2-0.1,0.4-0.3,0.5c-8,5-28.5,27.2-28.7,27.4&#10;&#9;&#9;C230.6,371.6,230.4,371.7,230.2,371.7z M234.1,341.3c-0.7,2.3-5.7,18.9-3.5,28.3c3.9-4.2,19.8-21,27.4-26.2l-10-9.7L234.1,341.3z"/>
	<path class="st2_coworking-31" d="M230.2,371c0,0-1.5,8,10.1-1s20-20.6,19.7-24.4s-5.5-5.9-13.2,1.7S231.2,364.5,230.2,371z"/>
	<path class="st1_coworking-31" d="M232.2,375c-0.5,0-1-0.1-1.5-0.4c-1.6-1-1.2-3.5-1.2-3.7c1.1-7,9.7-17,16.8-24c4.3-4.3,8.5-6.1,11.5-5.1&#10;&#9;&#9;c1.6,0.6,2.8,2.1,2.9,3.8c0.4,4.2-8.2,16-19.9,25.1C236.9,373.5,234.1,375,232.2,375z M256,342.8c-2.4,0-5.5,1.8-8.7,5&#10;&#9;&#9;c-5.7,5.7-15.4,16.2-16.4,23.3l0,0c0,0-0.3,1.8,0.6,2.3c0.6,0.3,2.5,0.6,8.4-3.9c11.7-9,19.7-20.5,19.4-23.8&#10;&#9;&#9;c-0.1-1.2-0.9-2.2-2-2.6C256.9,342.9,256.4,342.8,256,342.8z M230.2,371L230.2,371z"/>
	<path class="st1_coworking-31" d="M248,244.8c-0.4,0-0.7-0.3-0.7-0.7c-2.1-52-1.9-52.5-1.8-52.7c0.2-0.3,0.6-0.5,0.9-0.3&#10;&#9;&#9;c0.3,0.1,0.4,0.4,0.4,0.8c-0.1,1.6,1,32.1,1.9,52.2C248.7,244.4,248.4,244.8,248,244.8C248,244.8,248,244.8,248,244.8L248,244.8z"/>
	<path class="st3_coworking-31 targetColor" d="M292.7,176.3c0,0,12.7,1.4,19.4,15.4c3.6,7.6,13,32,13,32l-28,3.2L292.7,176.3z" style="fill: rgb(26, 117, 232);"/>
</g>
<g id="Plant_coworking-31">
	<path class="st1_coworking-31" d="M409.5,302.4c0.2-3.2-0.5-6.5-2-9.3c-1.2-2.1-3.1-3.7-4.2-5.9c-1.8-3.8-0.5-8.2-0.9-12.4&#10;&#9;&#9;c-0.4-3.5-1.9-6.7-4.4-9.2c-2.2-2.2-5-3.7-7-6c-3.4-3.8-4.4-9-6.3-13.7c-2.7-6.6-7.5-12.2-13.6-16c3.7,7.5-4.7,17-0.9,24.4&#10;&#9;&#9;c1.2,2.3,3.5,4.1,4.4,6.6c2.1,6-5,12.5-2.7,18.5c1.1,3,4.3,4.7,5.8,7.5c2,3.8,0.4,8.4,0.6,12.7c0.2,5.9,3.8,11.2,8.1,15.3&#10;&#9;&#9;c2.7,2.5,5.6,4.8,8.5,7.1c3.5,2.8,4.9,5.7,7.9,1.2C407,316.9,409.3,309.8,409.5,302.4z"/>
	<path class="st1_coworking-31" d="M413.4,305.8c-1.1-4.6-1.9-9.6,0-13.9c2.1-4.9,7.4-8.4,8-13.6c0.4-3.5-1.4-7-0.7-10.4s3.5-5.8,5.8-8.3&#10;&#9;&#9;c5.3-5.8,8.5-13.3,8.9-21.2c3.3,4.4,6.7,8.9,8.5,14.1c1.8,5.2,1.9,11.3-1.2,15.9c-0.9,1.1-1.6,2.3-2.1,3.5c-1,3.4,1.8,6.5,3.3,9.7&#10;&#9;&#9;c1.8,3.7,1.4,8.1-1.1,11.5c-3,3.8-8.9,5.2-10.4,9.9c-0.4,1.7-0.5,3.5-0.5,5.2c-0.5,5.9-5.2,11.7-11,13.1c-3.6,0.9-3.5-0.5-4.1-3.6&#10;&#9;&#9;C415.9,313.7,414.3,309.8,413.4,305.8z"/>
	<path class="st1_coworking-31" d="M402,272.8c-2.5-8.8-3.6-18-6.2-26.8c-2.1-6.9-5.2-13.4-8.3-20l10.9,4.6c3.5,1.5,7.3,3.2,8.9,6.6&#10;&#9;&#9;c2.9,6-2.3,13.6,0.7,19.5c1.1,2.1,3,3.5,4.3,5.4c3.2,4.5,2.7,10.7,1,16c-0.8,2.3-4.1,13.9-7,10.7c-1.2-1.3-1.3-6.1-1.8-7.9&#10;&#9;&#9;C403.7,278.3,402.7,275.6,402,272.8z"/>
	<path class="st1_coworking-31" d="M408.1,389.7c-2.2-14.4-9-65.1-9.1-65.6l1.4-0.2c0.1,0.5,6.9,51.2,9.1,65.6L408.1,389.7z"/>
	<path class="st1_coworking-31" d="M410.2,403.4h-1.4c0.1-18.2,7.5-82.6,11.3-86.7l1,0.9C417.9,321.2,410.4,383.8,410.2,403.4z"/>
	<path class="st1_coworking-31" d="M413.9,400.1l-1.4-0.1c1.6-36.9-6.2-114.2-6.3-115l1.4-0.1C407.7,285.7,415.6,363.1,413.9,400.1z"/>
	<path class="st2_coworking-31" d="M389.2,348.5h40.6l-2.9,46.2c-0.5,8-6.4,14.2-13.5,14.2h-7.9c-7.1,0-13.1-6.2-13.5-14.2L389.2,348.5z"/>
	<path class="st1_coworking-31" d="M413.5,409.6h-7.9c-7.5,0-13.8-6.5-14.3-14.9l-2.8-46.2c0-0.2,0-0.4,0.2-0.5c0.1-0.1,0.3-0.2,0.5-0.2h40.6&#10;&#9;&#9;c0.4,0,0.7,0.3,0.7,0.7c0,0,0,0,0,0l-2.9,46.2C427.2,403.1,421,409.6,413.5,409.6z M390,349.3l2.8,45.4c0.5,7.6,6.1,13.5,12.8,13.5&#10;&#9;&#9;h7.9c6.7,0,12.4-5.9,12.8-13.5l2.8-45.4H390z"/>
</g>
<g id="light_coworking-31">
	<circle class="st2_coworking-31" cx="374.9" cy="123.4" r="10.2"/>
	<path class="st0_coworking-31" d="M374.9,134.3c-6,0-10.9-4.9-10.9-10.9c0-6,4.9-10.9,10.9-10.9c6,0,10.9,4.9,10.9,10.9&#10;&#9;&#9;C385.8,129.4,380.9,134.3,374.9,134.3z M374.9,114c-5.2,0-9.5,4.2-9.5,9.5s4.2,9.5,9.5,9.5c5.2,0,9.5-4.2,9.5-9.5&#10;&#9;&#9;C384.3,118.2,380.1,114,374.9,114L374.9,114z"/>
	<path class="st2_coworking-31" d="M340,126.5c0-12.4,15.6-22.4,34.9-22.4s34.9,10,34.9,22.4H340z"/>
	<path class="st0_coworking-31" d="M409.8,127.2H340c-0.4,0-0.7-0.3-0.7-0.7v0c0-12.7,16-23.1,35.6-23.1s35.6,10.3,35.6,23.1&#10;&#9;&#9;C410.6,126.9,410.2,127.2,409.8,127.2C409.8,127.2,409.8,127.2,409.8,127.2z M340.7,125.8h68.4c-0.6-11.6-15.7-21-34.2-21&#10;&#9;&#9;S341.3,114.2,340.7,125.8z"/>
	<path class="st0_coworking-31" d="M374.9,104.8c-0.4,0-0.7-0.3-0.7-0.7v0v-25c0-0.4,0.3-0.7,0.7-0.7c0.4,0,0.7,0.3,0.7,0.7v25&#10;&#9;&#9;C375.6,104.5,375.3,104.8,374.9,104.8z"/>
</g>
<g id="window_coworking-31">
	<rect x="56.5" y="126.2" class="st2_coworking-31" width="90.9" height="59.9"/>
	<path class="st0_coworking-31" d="M147.4,186.8H56.5c-0.4,0-0.7-0.3-0.7-0.7v-59.9c0-0.4,0.3-0.7,0.7-0.7h90.9c0.4,0,0.7,0.3,0.7,0.7v59.9&#10;&#9;&#9;C148.1,186.5,147.8,186.8,147.4,186.8z M57.2,185.4h89.6v-58.5H57.2L57.2,185.4z"/>
	<rect x="63.1" y="133.2" class="st2_coworking-31" width="77.7" height="45.9"/>
	<path class="st0_coworking-31" d="M140.8,179.8H63.1c-0.4,0-0.7-0.3-0.7-0.7v-45.9c0-0.4,0.3-0.7,0.7-0.7h77.7c0.4,0,0.7,0.3,0.7,0.7v45.9&#10;&#9;&#9;C141.5,179.5,141.2,179.8,140.8,179.8C140.8,179.8,140.8,179.8,140.8,179.8z M63.8,178.4h76.3v-44.5H63.8L63.8,178.4z"/>
	<line class="st4_coworking-31" x1="63.1" y1="179.1" x2="140.8" y2="133.2"/>
	<path class="st0_coworking-31" d="M63.1,179.8c-0.4,0-0.7-0.3-0.7-0.7c0-0.3,0.1-0.5,0.4-0.6l77.7-45.9c0.3-0.2,0.8-0.1,1,0.2c0,0,0,0,0,0&#10;&#9;&#9;c0.2,0.3,0.1,0.8-0.2,1c0,0,0,0,0,0l-77.8,45.9C63.3,179.8,63.2,179.8,63.1,179.8z"/>
</g>
<g id="Plant-2_coworking-31">
	<path class="st2_coworking-31" d="M73.4,337.3c-3.6-3.3-7.8-6-12.2-8c-0.4,13,4.9,25,9.8,33.3H87"/>
	<path class="st1_coworking-31" d="M87,363.3H71.1c-0.3,0-0.5-0.1-0.6-0.4c-4.7-8-10.3-20.2-9.9-33.6c0-0.2,0.1-0.4,0.3-0.6&#10;&#9;&#9;c0.2-0.1,0.4-0.1,0.7-0.1c4.5,2,8.7,4.8,12.4,8.1c0.3,0.3,0.3,0.7,0.1,1c-0.3,0.3-0.7,0.3-1,0.1c0,0,0,0,0,0c-3.3-3-7-5.4-11-7.4&#10;&#9;&#9;c-0.1,12.5,5.1,23.9,9.5,31.5H87c0.4,0,0.7,0.3,0.7,0.7C87.7,363,87.4,363.3,87,363.3C87,363.3,87,363.3,87,363.3L87,363.3z"/>
	<path class="st2_coworking-31" d="M96.2,340.8c-3.9-20.4-19.9-33.2-19.9-33.2c-3,9.6-4,19.7-2.9,29.7c0.8,8.6,2.7,17.1,5.5,25.3h17.1"/>
	<path class="st1_coworking-31" d="M96.1,363.3H78.9c-0.3,0-0.6-0.2-0.7-0.5c-2.8-8.2-4.7-16.8-5.5-25.5c-1.1-10.1-0.1-20.3,2.9-30&#10;&#9;&#9;c0.1-0.2,0.2-0.4,0.5-0.5c0.2-0.1,0.5,0,0.6,0.1c0.2,0.1,16.2,13.2,20.2,33.6c0.1,0.4-0.2,0.8-0.6,0.8c-0.4,0.1-0.8-0.2-0.8-0.6&#10;&#9;&#9;l0,0c-3.3-17.3-15.6-29.3-18.9-32.1c-2.7,9.2-3.6,18.9-2.6,28.4c0.8,8.4,2.6,16.7,5.3,24.7h16.6c0.4,0,0.7,0.3,0.7,0.7&#10;&#9;&#9;C96.8,363,96.4,363.3,96.1,363.3C96.1,363.3,96.1,363.3,96.1,363.3L96.1,363.3z"/>
	<path class="st2_coworking-31" d="M104.7,362.6H89.5c-0.2-4.5,0.9-11.3,5.7-20.1c0.3-0.6,0.7-1.1,1-1.7c8.8-14.9,16.8-14.7,16.8-14.7&#10;&#9;&#9;C116.4,341.7,109.3,355.7,104.7,362.6z"/>
	<path class="st1_coworking-31" d="M104.7,363.3H89.5c-0.4,0-0.7-0.3-0.7-0.7c-0.1-4.3,0.8-11.3,5.8-20.5c0.3-0.6,0.7-1.2,1-1.7&#10;&#9;&#9;c8.9-15,17.1-15,17.4-15.1c0.3,0,0.6,0.2,0.7,0.6c3.5,15.9-3.8,30-8.5,37C105.2,363.2,104.9,363.3,104.7,363.3z M90.2,361.9h14.1&#10;&#9;&#9;c4.5-6.8,11.2-20.1,8.2-35c-1.9,0.3-8.5,2.2-15.7,14.3l-1,1.7C91.2,351.3,90.2,357.8,90.2,361.9z"/>
	<polygon class="st1_coworking-31" points="101.9,386.6 72.2,386.6 67.4,362.6 106.7,362.6 &#9;"/>
</g>
<g id="Chair_coworking-31">
	<rect x="269.9" y="295.5" class="st2_coworking-31" width="9.1" height="112.6"/>
	<path class="st1_coworking-31" d="M279,295.5v112.6h-9.1V295.5H279 M279,294.1h-9.1c-0.8,0-1.4,0.6-1.4,1.4v112.6c0,0.8,0.6,1.4,1.4,1.4h9.1&#10;&#9;&#9;c0.8,0,1.4-0.6,1.4-1.4V295.5C280.4,294.8,279.8,294.1,279,294.1z"/>
	<polygon class="st0_coworking-31" points="269.9,311 279,316.9 279,301 269.9,301 &#9;"/>
	<polygon class="st0_coworking-31" points="269.9,367.7 279,374.2 279.1,359.1 269.9,361 &#9;"/>
	<path class="st2_coworking-31" d="M243.6,290.3h61.6c2.8,0,5.1,2.3,5.1,5.1l0,0c0,2.8-2.3,5.1-5.1,5.1h-61.6c-2.8,0-5.1-2.3-5.1-5.1l0,0&#10;&#9;&#9;C238.5,292.5,240.8,290.3,243.6,290.3z"/>
	<path class="st1_coworking-31" d="M305.2,301.1h-61.6c-3.2,0-5.8-2.6-5.8-5.8c0-3.2,2.6-5.8,5.8-5.8c0,0,0,0,0,0h61.6c3.2,0,5.8,2.6,5.8,5.8&#10;&#9;&#9;C311,298.5,308.4,301.1,305.2,301.1z M243.6,291c-2.4,0-4.4,2-4.4,4.4c0,2.4,2,4.4,4.4,4.4c0,0,0,0,0,0h61.6c2.4,0,4.4-2,4.4-4.4&#10;&#9;&#9;c0-2.4-2-4.4-4.4-4.4H243.6z"/>
	<path class="st2_coworking-31" d="M304.1,412.8c0,3.9-12.8,4.4-28.7,4.4s-28.7-0.5-28.7-4.4s12.8-9.8,28.7-9.8S304.1,408.9,304.1,412.8z"/>
	<path class="st1_coworking-31" d="M275.4,417.9c-19.5,0-29.4-0.8-29.4-5c0-4.7,13.6-10.5,29.4-10.5s29.4,5.8,29.4,10.5&#10;&#9;&#9;C304.8,417.1,294.9,417.9,275.4,417.9z M275.4,403.7c-16.2,0-28,6-28,9.1c0,3.6,18.2,3.6,28,3.6s28,0,28-3.6&#10;&#9;&#9;C303.4,409.7,291.6,403.7,275.4,403.7L275.4,403.7z"/>
	<path class="st2_coworking-31" d="M246.9,355.6H302c1.5,0,2.7,1.2,2.7,2.7l0,0c0,1.5-1.2,2.7-2.7,2.7h-55.1c-1.5,0-2.7-1.2-2.7-2.7l0,0&#10;&#9;&#9;C244.2,356.8,245.4,355.6,246.9,355.6z"/>
	<path class="st1_coworking-31" d="M302,361.7h-55.1c-1.9,0.1-3.5-1.3-3.6-3.2c-0.1-1.9,1.3-3.5,3.2-3.6c0.1,0,0.2,0,0.4,0H302&#10;&#9;&#9;c1.9-0.1,3.5,1.3,3.6,3.2s-1.3,3.5-3.2,3.6C302.2,361.7,302.1,361.7,302,361.7z M246.9,356.3c-1.1,0-2,0.9-2,2s0.9,2,2,2H302&#10;&#9;&#9;c1.1,0,2-0.9,2-2s-0.9-2-2-2H246.9z"/>
</g>
</svg>