<svg id="_0480_finger_print" xmlns="http://www.w3.org/2000/svg" viewBox="0 0 500 500" data-imageid="fingerprint-94" imageName="Fingerprint" class="illustrations_image" style="width: 144px;"><defs><style>.cls-1_fingerprint-94{fill:#f4a28c;}.cls-2_fingerprint-94{fill:#a5a5a5;}.cls-3_fingerprint-94,.cls-4_fingerprint-94{fill:#e6e6e6;}.cls-5_fingerprint-94{fill:none;opacity:.03;}.cls-4_fingerprint-94{opacity:.3;}.cls-6_fingerprint-94{fill:#ce8172;opacity:.31;}.cls-7_fingerprint-94{opacity:.58;}.cls-7_fingerprint-94,.cls-8_fingerprint-94,.cls-9_fingerprint-94{fill:#68e1fd;}.cls-10_fingerprint-94{fill:#fff;opacity:.46;}.cls-11_fingerprint-94{fill:#24285b;}.cls-12_fingerprint-94{opacity:.08;}.cls-12_fingerprint-94,.cls-13_fingerprint-94{fill:#000001;}.cls-8_fingerprint-94{opacity:.73;}.cls-14_fingerprint-94{fill:#ffd200;}</style></defs><g id="bg_fingerprint-94"><path class="cls-4_fingerprint-94" d="m109.86,66.24c-46.32,19.03-80.68,67.27-87.46,125.63-5.71,49.17-21.26,155.79,75.09,181.37,154.67,41.07,332.99,18.48,370.34-62.8,37.36-81.28,0-226.7-95.81-245.96-55.35-11.12-171.71-35.4-262.17,1.75Z"/><g class="cls-5_fingerprint-94"><ellipse class="cls-13_fingerprint-94" cx="249.56" cy="439.71" rx="219.8" ry="13.92"/></g></g><g id="finger_scan_fingerprint-94"><rect class="cls-3_fingerprint-94" x="21.96" y="92.29" width="161.45" height="236.38"/><path class="cls-2_fingerprint-94" d="m148.56,197.41c-.81,21.22-5.34,38.64-15.11,54.54-1.3,2.12-2.52,2.7-3.94,1.85-1.44-.86-1.87-3.13-.87-4.92,1.41-2.53,3-4.96,4.26-7.56,8.66-17.92,12.09-36.72,9.1-56.51-.88-5.87-2.67-11.49-5.3-16.84-.41-.83-.74-1.77-.79-2.67-.08-1.45.48-2.74,2.03-3.15,1.55-.41,2.41.58,3.02,1.85,2.86,5.87,5.07,11.99,6,18.46.83,5.84,1.26,11.73,1.6,14.95Z"/><path class="cls-2_fingerprint-94" d="m105.26,127.74c-.02,1.91-1.04,3.15-2.8,3.21-17.05.57-29.36,9.2-38.73,22.78-3.99,5.78-6.78,12.16-8.74,18.89-.68,2.33-1.78,3.31-3.27,2.96-1.5-.35-2.52-2.21-1.92-4.22,6.24-20.87,17.68-37.33,39.19-44.72,4.11-1.41,8.67-1.6,13.04-2.14,2.08-.26,3.26,1.14,3.24,3.24Z"/><path class="cls-2_fingerprint-94" d="m158.69,190.11c0,1.38.02,2.62,0,3.86-.05,2.13-1.15,3.58-2.67,3.6-1.51.01-2.62-1.44-2.64-3.6-.07-7.01-.91-13.92-2.87-20.66-4.25-14.65-11.87-26.97-24.91-35.46-.99-.64-2.06-1.17-3.06-1.79-1.55-.97-2.12-2.6-1.55-4.3.67-2,2.12-2.59,4.03-1.55,5.83,3.16,10.91,7.29,15.27,12.27,9.7,11.1,15.09,24.16,17.36,38.59.48,3.03.71,6.1,1.04,9.03Z"/><path class="cls-2_fingerprint-94" d="m102.9,150.64c.85.05,2.04.04,3.21.2,1.63.23,2.7,1.89,2.49,3.72-.21,1.88-1.42,3-3.15,2.83-9.76-.96-17.37,3.05-23.44,10.32-6.15,7.37-8.72,16.1-9.06,25.57-.02.65,0,1.32-.14,1.94-.3,1.32-1.09,2.31-2.52,2.3-1.35,0-2.25-.94-2.39-2.21-.18-1.63-.17-3.3-.05-4.94.92-11.83,4.96-22.33,13.58-30.73,5.85-5.7,12.85-8.92,21.47-9.01Z"/><path class="cls-2_fingerprint-94" d="m119.72,212.5c0,.95.01,1.89,0,2.84-.04,2.03-1.06,3.44-2.53,3.52-1.51.07-2.67-1.37-2.77-3.49-.14-2.77-.19-5.55-.41-8.32-.45-5.62-1.32-11.16-3.6-16.36-.73-1.65-1.68-3.28-2.85-4.65-2.69-3.14-6.64-3.3-9.74-.55-2.43,2.16-3.52,4.97-3.69,8.17-.03.65.07,1.32-.05,1.95-.26,1.44-.94,2.67-2.58,2.69-1.63.01-2.49-1.19-2.58-2.64-.1-1.75-.06-3.57.29-5.29,1.28-6.14,4.2-11.07,10.63-12.96,3.74-1.1,7.15-.15,10.05,2.42,3.44,3.05,5.25,7.1,6.57,11.37,2.14,6.93,3.07,14.07,3.27,21.31Z"/><path class="cls-2_fingerprint-94" d="m137.42,211.07c-2.45,19.42-9.67,37.61-25.22,51.8-1.91,1.75-3.09,1.91-4.25.69-1.38-1.46-1.16-3.82.43-5.39,2.27-2.24,4.64-4.41,6.69-6.83,9.39-11.09,14.45-24.1,16.67-38.33.18-1.17.28-2.35.44-3.52.29-2.13,1.36-3.39,2.8-3.3,1.61.09,2.59,1.62,2.44,4.89Z"/><path class="cls-2_fingerprint-94" d="m57.26,194.4c.43-16.37,4.9-30.91,15.9-43,1.78-1.95,3.85-3.66,5.88-5.36,1.7-1.43,2.82-1.43,3.88-.29,1.14,1.22,1.24,3.4.18,4.74-.22.27-.5.51-.77.72-11.32,8.72-17.08,20.59-19.02,34.42-.65,4.64-.4,9.41-.42,14.12-.02,2.55-.79,4.14-2.44,4.26-1.67.12-2.72-1.31-2.88-3.92-.12-2-.22-4.01-.31-5.7Z"/><path class="cls-2_fingerprint-94" d="m102.3,164.2c6.92.16,12.25,2.9,16.43,7.81.69.81.92,2.31.79,3.42-.09.8-1.04,1.95-1.78,2.11-.81.17-2.08-.37-2.72-1.02-4.2-4.3-9.16-6.56-15.19-5.42-6.3,1.19-10.35,5.35-13.19,10.86-.3.58-.41,1.32-.85,1.74-.63.61-1.49,1.39-2.23,1.37-.74-.02-1.75-.81-2.1-1.52-.4-.81-.54-2.06-.2-2.87,3.45-8.32,8.98-14.38,18.23-16.18,1.04-.2,2.11-.23,2.8-.31Z"/><path class="cls-2_fingerprint-94" d="m102.89,144.2c-1.83.17-3.36.28-4.88.47-2.57.32-3.83-.43-4.16-2.57-.32-2.08.87-3.6,3.26-3.96,6.31-.96,12.47-.29,18.46,1.91,5.52,2.02,10.34,5.16,14.5,9.28.75.74,1.34,2.06,1.3,3.08-.05,1-.79,2.22-1.61,2.85-1.01.78-2.08.02-2.96-.81-5.09-4.81-10.95-8.18-17.88-9.5-2.08-.39-4.21-.52-6.04-.74Z"/><path class="cls-2_fingerprint-94" d="m75.58,222.04c-.09,8.99-1.09,16.94-3.37,24.71-.68,2.31-1.8,3.3-3.31,2.86-1.57-.45-2.43-2.36-1.83-4.43,2.15-7.43,3.36-15.01,3.16-22.74-.12-4.48-.78-8.94-1.19-13.41-.08-.82-.23-1.66-.13-2.46.17-1.39.85-2.52,2.43-2.59,1.49-.07,2.33.92,2.56,2.23.53,3.02,1,6.06,1.33,9.12.27,2.52.28,5.08.36,6.71Z"/><path class="cls-2_fingerprint-94" d="m137.56,191.62c0,1.12.13,2.26-.03,3.35-.21,1.46-1.01,2.65-2.65,2.54-1.57-.11-2.31-1.26-2.47-2.77-.32-3.11-.4-6.26-.98-9.33-1.53-8.16-5.15-15.26-11.2-21.07-.87-.83-1.57-2.06-1.86-3.23-.33-1.32.28-2.8,1.67-3.13.89-.21,2.24.21,2.96.84,4.57,3.99,7.96,8.87,10.3,14.45,2.47,5.86,4.07,11.95,4.26,18.35Z"/><path class="cls-2_fingerprint-94" d="m108.33,227.33c-.77,11.65-2.92,23.04-6.45,34.17-.66,2.1-1.72,2.88-3.23,2.51-1.5-.37-2.43-2.33-1.92-4.23.81-3.02,1.78-5.99,2.53-9.02,1.98-7.97,3.32-16.06,3.77-24.27,0-.12,0-.24.01-.35.17-2.13,1.3-3.55,2.78-3.51,1.57.04,2.6,1.59,2.54,3.82,0,.29-.03.59-.04.88Z"/><path class="cls-2_fingerprint-94" d="m87.26,221.35c0,1.59.05,3.19-.01,4.78-.08,1.94-1.33,3.38-2.76,3.32-1.36-.06-2.47-1.49-2.5-3.35-.14-9.23-1.02-18.38-3.01-27.4-.06-.29-.11-.58-.13-.87-.15-1.9.82-3.49,2.27-3.71,1.4-.22,2.59.87,3.01,2.85,1.7,8.04,2.79,16.16,3.14,24.39Z"/><path class="cls-2_fingerprint-94" d="m56.17,220.03c-.17,1.7-.66,3.06-2.32,3.37-1.67.31-2.48-.89-2.92-2.25-2.85-8.65-4.25-17.54-4.25-26.64,0-.78.19-1.76.68-2.29.56-.6,1.58-1.17,2.35-1.1,1.38.12,2.06,1.3,2.16,2.65.14,1.88.15,3.77.26,5.66.36,6.46,1.59,12.75,3.62,18.9.2.61.32,1.25.43,1.71Z"/><path class="cls-2_fingerprint-94" d="m128.96,206.07c0,1.83.06,3.66-.02,5.49-.08,1.87-1.13,3.05-2.54,3.09-1.42.04-2.65-1.3-2.71-3.16-.06-1.89.26-3.8.03-5.66-.71-5.79-1.62-11.55-2.41-17.32-.11-.79-.32-1.81.05-2.38.54-.84,1.57-1.88,2.38-1.87.8.02,2.08,1.1,2.3,1.93,1,3.87,1.83,7.8,2.47,11.75.43,2.67.46,5.41.67,8.12-.07,0-.14,0-.21,0Z"/><path class="cls-2_fingerprint-94" d="m97.32,226.32c-.22,3.08-.48,6.85-.76,10.61-.03.47-.13.94-.27,1.39-.39,1.24-1.17,2.09-2.56,2.01-1.39-.08-2.1-1.07-2.35-2.29-.17-.85-.1-1.77,0-2.64.86-7.26.65-14.5-.2-21.74-.07-.63-.06-1.31.11-1.91.33-1.23,1.08-2.12,2.49-2.09,1.42.03,2.18.98,2.4,2.2.35,1.91.56,3.86.7,5.8.19,2.65.27,5.31.43,8.67Z"/><path class="cls-2_fingerprint-94" d="m65.51,221.42c-.63,4.78-1.24,9.57-1.9,14.35-.09.63-.21,1.39-.61,1.81-.56.6-1.39,1.28-2.1,1.28-.72,0-1.76-.63-2.07-1.27-.43-.88-.56-2.08-.36-3.05,1.36-6.35,1.59-12.74,1.17-19.19-.04-.59-.09-1.19,0-1.76.21-1.41.9-2.51,2.45-2.57,1.57-.07,2.42,1.01,2.57,2.4.3,2.63.4,5.29.58,7.93.09.02.18.04.26.06Z"/><path class="cls-2_fingerprint-94" d="m157.47,208.29c-.73,7.24-2.25,14.08-4.76,20.68-.69,1.81-1.82,2.53-3.14,2.13-1.36-.41-2.28-2.07-1.92-3.75.29-1.32.91-2.56,1.21-3.88,1.1-4.83,2.13-9.67,3.18-14.5.14-.63.14-1.3.3-1.92.33-1.3,1.04-2.32,2.52-2.3,1.47.02,2.17,1.04,2.48,2.35.11.45.1.93.12,1.19Z"/><path class="cls-2_fingerprint-94" d="m107.97,212.34c0,.89.1,1.79-.02,2.65-.19,1.31-.82,2.4-2.29,2.54-1.57.15-2.53-.78-2.72-2.21-.31-2.28-.3-4.59-.59-6.87-.5-3.98-1.13-7.95-1.7-11.92-.04-.29-.11-.58-.13-.88-.13-1.83.94-3.48,2.37-3.67,1.33-.17,2.6.91,2.89,2.79.9,5.83,1.71,11.67,2.55,17.51l-.36.05Z"/><path class="cls-2_fingerprint-94" d="m119.01,227.39c-.77,6.37-2.22,12.99-4.68,19.34-.3.78-1.61,1.73-2.34,1.65-.86-.1-1.92-1.1-2.29-1.97-.36-.86-.09-2.06.13-3.06,1.25-5.51,2.56-11,3.86-16.5.04-.17.05-.35.08-.52.39-1.84,1.52-2.93,2.88-2.79,1.39.15,2.39,1.62,2.36,3.85Z"/><path class="cls-2_fingerprint-94" d="m86.48,238.94c-1.53,5.61-3.02,11.24-4.63,16.83-.32,1.12-1.36,2.09-2.56,1.63-.89-.34-1.75-1.34-2.13-2.25-.32-.76-.02-1.84.18-2.73,1.09-4.7,2.24-9.38,3.37-14.08.1-.4.05-.94.3-1.18.75-.72,1.63-1.84,2.43-1.82.82.02,1.68,1.14,2.37,1.92.29.33.16,1.02.22,1.54.15.05.3.09.45.14Z"/><path class="cls-2_fingerprint-94" d="m94.81,247.87c-.41,1.63-.91,3.82-1.54,5.96-.59,2.04-1.28,4.05-1.98,6.06-.45,1.29-1.34,2.2-2.79,1.92-1.46-.28-2.13-1.41-2.2-2.84-.03-.58.02-1.19.18-1.75,1.02-3.58,2.06-7.14,3.12-10.7.42-1.39,1.16-2.52,2.85-2.36,1.29.12,2.31,1.55,2.35,3.71Z"/><polygon class="cls-2_fingerprint-94" points="170.25 283.12 149.72 283.12 149.72 279.68 166.82 279.68 166.82 262.59 170.25 262.59 170.25 283.12"/><polygon class="cls-2_fingerprint-94" points="35.92 283.12 56.46 283.12 56.46 279.68 39.36 279.68 39.36 262.59 35.92 262.59 35.92 283.12"/><polygon class="cls-2_fingerprint-94" points="170.25 102.55 149.72 102.55 149.72 105.99 166.82 105.99 166.82 123.09 170.25 123.09 170.25 102.55"/><polygon class="cls-2_fingerprint-94" points="35.92 102.55 56.46 102.55 56.46 105.99 39.36 105.99 39.36 123.09 35.92 123.09 35.92 102.55"/><rect class="cls-10_fingerprint-94" x="35.92" y="296.11" width="134.33" height="5.35"/><rect class="cls-10_fingerprint-94" x="35.92" y="309.76" width="118.19" height="5.35"/><circle class="cls-11_fingerprint-94" cx="138.97" cy="239.09" r="18.99"/><polygon class="cls-9_fingerprint-94 targetColor" points="134.73 250.77 127.06 236.32 132.12 233.64 136.44 241.78 149.04 231.05 152.76 235.41 134.73 250.77" style="fill: rgb(26, 117, 232);"/></g><g id="finger_print_fingerprint-94"><rect class="cls-3_fingerprint-94" x="195.67" y="160.21" width="77.84" height="59.21"/><rect class="cls-14_fingerprint-94" x="202.47" y="164.69" width="46.41" height="20.55"/><rect class="cls-2_fingerprint-94" x="202.47" y="188.98" width="9.43" height="5.78"/><rect class="cls-2_fingerprint-94" x="214.77" y="188.98" width="9.43" height="5.78"/><rect class="cls-2_fingerprint-94" x="227.14" y="188.98" width="9.43" height="5.78"/><rect class="cls-2_fingerprint-94" x="239.44" y="188.98" width="9.43" height="5.78"/><rect class="cls-2_fingerprint-94" x="202.47" y="197.22" width="9.43" height="5.78"/><rect class="cls-2_fingerprint-94" x="214.77" y="197.22" width="9.43" height="5.78"/><rect class="cls-2_fingerprint-94" x="227.14" y="197.22" width="9.43" height="5.78"/><rect class="cls-2_fingerprint-94" x="239.44" y="197.22" width="9.43" height="5.78"/><rect class="cls-2_fingerprint-94" x="202.47" y="205.46" width="9.43" height="5.78"/><rect class="cls-2_fingerprint-94" x="214.77" y="205.46" width="9.43" height="5.78"/><rect class="cls-2_fingerprint-94" x="227.14" y="205.46" width="9.43" height="5.78"/><rect class="cls-2_fingerprint-94" x="239.44" y="205.46" width="9.43" height="5.78"/><rect class="cls-2_fingerprint-94" x="252.78" y="177.99" width="15.18" height="27.47" rx="3.47" ry="3.47"/><rect class="cls-11_fingerprint-94" x="254.95" y="183.92" width="10.84" height="17.06"/></g><g id="person_fingerprint-94"><path class="cls-1_fingerprint-94" d="m360.67,203c-1.23-.04-2.45-.07-3.68-.1-5.54,3.53-12.76,3.46-19.16.6-.28-.03-.54-.1-.81-.17-3.96,21.11-8.79,42.74-27.26,48.06-24.08,6.94-43.98-57.89-46.28-61.92-.7-1.24-2.26-2.46-3.12-2.24-3.74.98-.71,6.17-.11,7.64-2.73,2.38-6.23,6.33-5.62,9.85.3,1.76.96,3.46,1.87,4.99.67,1.14,4.04,3.74,4.17,4.7,0,0,8.71,61.58,54.95,59.43,33.2-1.55,50.27-34.7,57.26-69.82-4.04-.24-8.15-.53-12.2-1.03Z"/><path class="cls-12_fingerprint-94" d="m360.67,203c-1.23-.04-2.45-.07-3.68-.1-5.54,3.53-12.76,3.46-19.16.6-.28-.03-.54-.1-.81-.17-3.96,21.11-8.79,42.74-27.26,48.06-24.08,6.94-43.98-57.89-46.28-61.92-.7-1.24-2.26-2.46-3.12-2.24-3.74.98-.71,6.17-.11,7.64-2.73,2.38-6.23,6.33-5.62,9.85.3,1.76.96,3.46,1.87,4.99.67,1.14,4.04,3.74,4.17,4.7,0,0,8.71,61.58,54.95,59.43,33.2-1.55,50.27-34.7,57.26-69.82-4.04-.24-8.15-.53-12.2-1.03Z"/><path class="cls-9_fingerprint-94 targetColor" d="m372.39,178.75s-32.23-6.36-36.75,19.69c-4.52,26.05-12.49,43.5-12.49,43.5l24.62,7.97,24.62-71.15Z" style="fill: rgb(26, 117, 232);"/><path class="cls-10_fingerprint-94" d="m372.39,178.75s-32.23-6.36-36.75,19.69c-4.52,26.05-12.49,43.5-12.49,43.5l24.62,7.97,24.62-71.15Z"/><path class="cls-1_fingerprint-94" d="m373.79,135.1s-4.65,9.85-5.44,17.25c-.32,3,1.89,5.74,4.9,6.01,3.73.34,8.88-.27,12.01-5.25l6.35-7.79s3.81-5.02-.42-11.29c-4.23-6.27-14.87-5.07-17.41,1.07Z"/><polygon class="cls-1_fingerprint-94" points="387.65 147.08 389.92 178.74 372.39 178.75 377.64 156.29 387.65 147.08"/><path class="cls-1_fingerprint-94" d="m370.9,142.53l-3.82,2.56c-.94.63-.91,2.03.07,2.62l3.23,1.94.53-7.12Z"/><path class="cls-6_fingerprint-94" d="m377.49,156.93s3.71-.63,5.71-2.73c0,0,1.13,6.86-7.22,9.17l1.5-6.43Z"/><path class="cls-1_fingerprint-94" d="m382.78,146.67s1.53-3.9,4.37-2.51c2.84,1.4.67,7.05-3.55,6.1l-.83-3.59Z"/><polygon class="cls-1_fingerprint-94" points="340.71 359.01 325.88 426.41 334.5 426.41 363.36 359.01 340.71 359.01"/><polygon class="cls-1_fingerprint-94" points="388.97 350.83 404.78 426.41 413.45 426.41 412.14 350.29 388.97 350.83"/><path class="cls-9_fingerprint-94 targetColor" d="m325.88,426.41s-4.79,6.07-10.91,5.77-7.02,8.36,2.83,7.46c3.76-.34,6.78-.94,9.08-1.56,2.74-.73,5.57-.44,8.31.29.85.23,1.83.03,2.81-1.12,2.8-3.28-4.07-10.85-4.07-10.85h-8.04Z" style="fill: rgb(26, 117, 232);"/><path class="cls-9_fingerprint-94 targetColor" d="m412.82,426.41s4.79,6.07,10.91,5.77c6.13-.3,7.02,8.36-2.83,7.46-3.76-.34-6.78-.94-9.08-1.56-2.74-.73-5.57-.44-8.31.29-.85.23-1.83.03-2.81-1.12-2.8-3.28,4.07-10.85,4.07-10.85h8.04Z" style="fill: rgb(26, 117, 232);"/><path class="cls-9_fingerprint-94 targetColor" d="m433.34,254.87c-8.83,14.08-18.97,32-23.44,46.08-1.24,3.96-2.05,7.61-2.25,10.8l-68.16-3.45s.51-4.3.81-11c.55-11.63.49-30.5-3.83-46.47-1.14-4.28-2.6-8.34-4.44-12.01,0,0-23.21-39.77,40.36-60.08h17.53s1.2-.06,3.27,0c38.25,1.22,60.47,43.71,40.16,76.13Z" style="fill: rgb(26, 117, 232);"/><path class="cls-12_fingerprint-94" d="m415.69,279.87l-5.78,21.08-69.6-3.65c.55-11.63.49-30.5-3.83-46.47,18.42,9.03,54.4,23.52,55.88.1,2.01-31.51,10.49-49.04,10.49-49.04,31.11,45.31,12.84,77.98,12.84,77.98Z"/><polygon class="cls-11_fingerprint-94" points="340.31 297.3 409.91 300.96 428.5 371.47 327.89 367.89 340.31 297.3"/><path class="cls-1_fingerprint-94" d="m403.41,205.27c-.63-14.21,17.24-20.98,26.28-10.01,7.8,9.46,14.96,23.35,14.69,42.35-.57,41.26-6.13,85.92-95.13,37.11l4.8-13.08s39.5,18.99,56,12.83c12.13-4.53-5.38-40.87-6.64-69.2Z"/><path class="cls-1_fingerprint-94" d="m354.05,261.64s-14.84-7.05-21.16,0c-6.32,7.05,3.73,13.37,16.36,13.08l4.8-13.08Z"/><path class="cls-11_fingerprint-94" d="m372.06,129.88l-3.41,8.56,14.14,5.43s.8,9.51-4.2,11.24c0,0,3.09.15,6.07-2.94,1.28-1.33,3.35-1.52,4.73-.29l.18.16s6.62-6.17,8.23-14.56c1.61-8.39-7.75-9.69-7.75-9.69,0,0-12.43-8.73-18,2.09Z"/><path class="cls-11_fingerprint-94" d="m390.05,127.78s.65-8.07,15.17-6.78c14.53,1.29,0,20.91,11.95,39.19,0,0-21.95-4.64-22.6-24.34l-4.52-8.07Z"/><path class="cls-14_fingerprint-94" d="m389.14,127.21s2.91-2.01,7.03.6,5.93,12.11-.54,15.38c0,0,5.38-12.88-6.48-15.97Z"/><path class="cls-9_fingerprint-94 targetColor" d="m409.06,249.9h37.9s4.16-55.32-27.21-62.4c-31.36-7.08-10.69,62.4-10.69,62.4Z" style="fill: rgb(26, 117, 232);"/><path class="cls-10_fingerprint-94" d="m409.06,249.9h37.9s4.16-55.32-27.21-62.4c-31.36-7.08-10.69,62.4-10.69,62.4Z"/></g><g id="plant_fingerprint-94"><path class="cls-7_fingerprint-94 targetColor" d="m83.54,418.24s-12.65-3.46-15.4-15.23c0,0,19.6-3.96,20.16,16.27l-4.76-1.04Z" style="fill: rgb(26, 117, 232);"/><path class="cls-8_fingerprint-94 targetColor" d="m85.09,416.98s-8.84-13.98-1.06-27.04c0,0,14.91,9.47,8.28,27.07l-7.22-.03Z" style="fill: rgb(26, 117, 232);"/><path class="cls-9_fingerprint-94 targetColor" d="m87.37,416.99s4.67-14.76,18.79-17.55c0,0,2.65,9.58-9.14,17.59l-9.65-.04Z" style="fill: rgb(26, 117, 232);"/><polygon class="cls-11_fingerprint-94" points="78.2 416.66 80.76 434.21 96.91 434.28 99.3 416.75 78.2 416.66"/></g></svg>