<svg version="1.1" id="Layer_1" xmlns="http://www.w3.org/2000/svg" xmlns:xlink="http://www.w3.org/1999/xlink" x="0px" y="0px" viewBox="0 0 500 500" style="width: 144px;" xml:space="preserve" data-imageid="personal-data-1-78" imageName="Personal Data 1" class="illustrations_image">
<style type="text/css">
	.st0_personal-data-1-78{fill:#FFFFFF;}
	.st1_personal-data-1-78{fill:#231F20;}
	.st2_personal-data-1-78{fill:#68E1FD;}
	.st3_personal-data-1-78{fill:#D1D3D4;}
</style>
<g id="Card_personal-data-1-78">
	<path class="st0_personal-data-1-78" d="M46.7,123h406.5c7.4,0,13.4,6,13.4,13.4v227.2c0,7.4-6,13.4-13.4,13.4H46.7c-7.4,0-13.4-6-13.4-13.4V136.4&#10;&#9;&#9;C33.3,129,39.3,123,46.7,123z"/>
	<path class="st1_personal-data-1-78" d="M447.9,377.7H52.1c-10.8,0-19.5-8.7-19.5-19.5V141.8c0-10.8,8.7-19.5,19.5-19.5h395.8&#10;&#9;&#9;c10.8,0,19.5,8.7,19.5,19.5v216.4C467.4,369,458.7,377.7,447.9,377.7z M52.1,123.7c-10,0-18.1,8.1-18.1,18.1v216.4&#10;&#9;&#9;c0,10,8.1,18.1,18.1,18.1h395.8c10,0,18.1-8.1,18.1-18.1V141.8c0-10-8.1-18.1-18.1-18.1L52.1,123.7z"/>
	<path class="st1_personal-data-1-78" d="M466.7,150.6H33.3c-0.4,0-0.7-0.3-0.7-0.7c0-0.4,0.3-0.7,0.7-0.7h433.4c0.4,0,0.7,0.3,0.7,0.7&#10;&#9;&#9;S467.1,150.6,466.7,150.6C466.7,150.6,466.7,150.6,466.7,150.6z"/>
</g>
<g id="ID_Photo_personal-data-1-78">
	<rect x="75.9" y="174.9" class="st0_personal-data-1-78" width="142.3" height="171.8"/>
	<path class="st1_personal-data-1-78" d="M218.2,175v171.8H75.9V175H218.2 M218.2,173.6H75.9c-0.8,0-1.4,0.6-1.4,1.4v171.8c0,0.8,0.6,1.4,1.4,1.4h142.3&#10;&#9;&#9;c0.8,0,1.4-0.6,1.4-1.4V175C219.6,174.2,219,173.6,218.2,173.6z"/>
	<path class="st0_personal-data-1-78" d="M100.6,250.2c-4,6.4-5,14.1-5.5,21.6h107.7c0.1-0.4,0.2-0.9,0.2-1.3c0-7.8-12.4-10-14.1-17.2&#10;&#9;&#9;c-1-4.3,1.8-8.4,2.3-12.8c1-7.3-4.2-13.8-7.5-20.4c-4-8.1-2-18.4-7.2-25.6c-6.9-9.4-18.1-11.4-29.3-11.4&#10;&#9;&#9;c-6.2-0.1-12.4,1.2-18.2,3.7c-5.3,2.3-7.8,7.5-9,13.2c-2.1-0.9-4.7,0.1-6.6,1.4c-8.6,5.9-10.9,17.4-9.2,27.1&#10;&#9;&#9;c0.8,4.6,2.5,9.4,1.1,13.9C104.3,245.3,102.2,247.6,100.6,250.2z"/>
	<path class="st1_personal-data-1-78" d="M202.7,272.6H95.1c-0.2,0-0.4-0.1-0.5-0.2c-0.1-0.1-0.2-0.3-0.2-0.5c0.5-7.1,1.4-15.2,5.6-22l0,0&#10;&#9;&#9;c0.5-0.8,1-1.5,1.5-2.2c1.3-1.6,2.3-3.5,3-5.4c1-3.3,0.3-7-0.5-10.5c-0.2-1-0.4-2.1-0.6-3.1c-1.5-8.8,0-21.3,9.5-27.8&#10;&#9;&#9;c2.3-1.6,4.6-2.2,6.5-1.7c1.7-6.7,4.7-10.9,9.3-12.9c5.8-2.5,12.1-3.8,18.4-3.7c9.9,0,22.3,1.3,29.9,11.7c3,4.1,3.7,9.1,4.4,14&#10;&#9;&#9;c0.6,4,1.1,8.1,2.9,11.7c0.8,1.5,1.6,3.1,2.5,4.6c2.9,5.1,5.9,10.4,5.1,16.3c-0.3,1.7-0.7,3.3-1.3,4.9c-0.9,2.6-1.7,5.1-1.1,7.6&#10;&#9;&#9;c0.7,3.1,3.7,5.2,6.8,7.5c3.6,2.6,7.4,5.4,7.4,9.9c0,0.5-0.1,1-0.2,1.5C203.4,272.3,203.1,272.6,202.7,272.6z M95.8,271.1h106.3&#10;&#9;&#9;c0-0.2,0-0.4,0-0.6c0-3.8-3.3-6.2-6.8-8.8c-3.2-2.3-6.4-4.7-7.3-8.3c-0.7-2.9,0.2-5.7,1.1-8.4c0.5-1.5,1-3.1,1.2-4.6&#10;&#9;&#9;c0.7-5.4-2.2-10.4-4.9-15.4c-0.9-1.5-1.8-3.1-2.5-4.6c-1.9-3.8-2.5-8-3-12.1c-0.7-4.9-1.3-9.6-4.1-13.4&#10;&#9;&#9;c-7.2-9.8-19.1-11.1-28.7-11.1c-6.1-0.1-12.2,1.2-17.9,3.6c-4.3,1.9-7.1,5.9-8.6,12.7c-0.1,0.4-0.5,0.6-0.9,0.5c0,0-0.1,0-0.1,0&#10;&#9;&#9;c-2.1-0.9-4.6,0.4-5.9,1.3c-8.9,6.1-10.4,18-8.9,26.4c0.2,1,0.4,2,0.6,3.1c0.8,3.7,1.6,7.5,0.5,11.2c-0.8,2.1-1.8,4-3.2,5.8&#10;&#9;&#9;c-0.5,0.7-1,1.4-1.4,2.2l0,0C97.3,256.9,96.4,264.4,95.8,271.1z M100.6,250.2L100.6,250.2z"/>
	<path class="st2_personal-data-1-78 targetColor" d="M218.2,297.1v49.6H75.9v-49.6c14.4-13.6,35-18.3,52.6-19.9c6.8-0.6,13.1-0.7,18.5-0.7h1.3&#10;&#9;&#9;c5,0,10.8,0.2,16.9,0.7c0.1,0,0.2,0,0.3,0C183.2,278.9,203.8,283.5,218.2,297.1z" style="fill: rgb(104, 225, 253);"/>
	<path class="st1_personal-data-1-78" d="M166,286.8L166,286.8L166,286.8l-13.4,46.4l-3.9,13.5h-3.2l-3.9-13.6L128.2,287l-0.1-0.1l0,0&#10;&#9;&#9;C137.2,284.1,156.9,284.1,166,286.8z"/>
	<path class="st0_personal-data-1-78" d="M128.1,286.8c0,0,4.7,10.3,18.5,10.3s19.4-10.3,19.4-10.3l-1.8-40.4H130L128.1,286.8z"/>
	<path class="st1_personal-data-1-78" d="M146.6,297.8c-14.1,0-19.1-10.6-19.2-10.7c0-0.1-0.1-0.2-0.1-0.3l1.8-40.4c0-0.4,0.3-0.7,0.7-0.7h34.2&#10;&#9;&#9;c0.4,0,0.7,0.3,0.7,0.7l1.9,40.4c0,0.1,0,0.3-0.1,0.4C162.3,294,154.7,298,146.6,297.8z M128.9,286.7c0.6,1.3,5.4,9.7,17.8,9.7&#10;&#9;&#9;c7.5,0.2,14.5-3.5,18.6-9.8l-1.8-39.5h-32.8L128.9,286.7z"/>
	<path class="st1_personal-data-1-78" d="M130,263.7c2.4,3.8,6.3,6.8,10.3,9.1c6.8,3.8,16.9,8,25.1,6.7l-1.4-17.1c-6,0.8-12.1,0.8-18.1,0.1&#10;&#9;&#9;c-5.3-0.5-10.8-1-15.6-3C129.4,259.1,128.9,262,130,263.7z"/>
	<path class="st1_personal-data-1-78" d="M162.3,280.4c-8.3,0-17.3-4.3-22.3-7s-8.4-5.8-10.6-9.3c-1-1.5-0.9-4-0.1-4.9c0.3-0.4,0.8-0.5,1.3-0.3&#10;&#9;&#9;c4.9,2,10.5,2.5,15.4,3c6,0.7,12,0.6,18-0.1c0.2,0,0.4,0,0.5,0.1c0.2,0.1,0.3,0.3,0.3,0.5l1.4,17.1c0,0.4-0.2,0.7-0.6,0.7&#10;&#9;&#9;C164.5,280.3,163.4,280.4,162.3,280.4z M130.3,260.2c-0.3,1-0.2,2.2,0.3,3.1l0,0c2,3.3,5.4,6.2,10.1,8.8c5.4,3,15.5,7.7,24,6.7&#10;&#9;&#9;l-1.2-15.7c-5.8,0.7-11.7,0.7-17.6,0C140.9,262.7,135.3,262.2,130.3,260.2L130.3,260.2z M130.1,260.1L130.1,260.1z"/>
	<polygon class="st0_personal-data-1-78" points="147.1,307.8 140.6,302.8 147.1,297.8 153.6,302.8 &#9;"/>
	<polygon class="st0_personal-data-1-78" points="152.6,333.2 148.7,346.8 145.5,346.8 141.6,333.2 144.8,306 144.8,306 144.9,305.1 145,304.5 &#10;&#9;&#9;149.2,304.5 149.3,305.1 149.4,306 149.4,306 &#9;"/>
	<path class="st1_personal-data-1-78" d="M99,347.5c-0.4,0-0.7-0.3-0.7-0.6l-5.5-41.7c-0.1-0.4,0.2-0.8,0.6-0.8c0.4-0.1,0.8,0.2,0.8,0.6l0,0l5.5,41.7&#10;&#9;&#9;C99.8,347,99.5,347.4,99,347.5L99,347.5z"/>
	<path class="st1_personal-data-1-78" d="M195.2,347.5h-0.1c-0.4-0.1-0.7-0.4-0.6-0.8L200,305c0.1-0.4,0.4-0.7,0.8-0.6s0.7,0.4,0.6,0.8l-5.5,41.7&#10;&#9;&#9;C195.8,347.2,195.5,347.5,195.2,347.5z"/>
	<path class="st0_personal-data-1-78" d="M168.6,237.1c1.1-9.5,12.9-11.8,12.3-0.6c-0.2,3.8-1.1,7.7-3.1,10.5s-5.2,4-7.9,2.5"/>
	<path class="st1_personal-data-1-78" d="M172.4,250.8c-1,0-2-0.3-2.8-0.8c-0.3-0.2-0.5-0.6-0.3-1c0,0,0,0,0,0c0.2-0.3,0.7-0.5,1-0.2&#10;&#9;&#9;c2.1,1.3,5,0.4,6.9-2.3c1.7-2.3,2.8-5.9,3-10.1c0.2-4-1.2-6.5-3.8-6.7c-3-0.3-6.5,2.7-7.1,7.4c0,0.4-0.4,0.7-0.8,0.6&#10;&#9;&#9;c-0.4,0-0.7-0.4-0.6-0.8c0.7-5.8,5-9,8.6-8.7c2.7,0.2,5.4,2.5,5.1,8.2c-0.2,3.2-0.9,7.6-3.3,10.9&#10;&#9;&#9;C177,249.4,174.8,250.7,172.4,250.8z"/>
	<path class="st0_personal-data-1-78" d="M124.4,237.1c-1.1-9.5-12.9-11.8-12.3-0.6c0.2,3.8,1.1,7.7,3.1,10.5s5.3,4,7.9,2.5"/>
	<path class="st1_personal-data-1-78" d="M120.7,250.8c-2.4-0.1-4.7-1.4-6-3.4c-2.4-3.3-3.1-7.7-3.3-10.9c-0.3-5.7,2.4-8,5.1-8.2&#10;&#9;&#9;c3.6-0.3,7.9,2.9,8.6,8.7c0.1,0.4-0.2,0.7-0.6,0.8c0,0,0,0,0,0c-0.4,0-0.7-0.2-0.8-0.6c-0.6-4.8-4.1-7.7-7.1-7.4&#10;&#9;&#9;c-2.6,0.2-4,2.7-3.8,6.7c0.2,4.2,1.3,7.8,3,10.1c1.9,2.6,4.8,3.6,6.9,2.3c0.3-0.2,0.8-0.1,1,0.2c0.2,0.3,0.1,0.8-0.2,1&#10;&#9;&#9;C122.6,250.6,121.6,250.8,120.7,250.8z"/>
	<path class="st0_personal-data-1-78" d="M172.4,216.3v27.5c0,13.2-10.7,23.9-23.9,23.9c0,0,0,0,0,0h-2.8c-13.2,0-23.9-10.7-23.9-23.9v-26.1l15-1.3&#10;&#9;&#9;l1.7-11.9l3.8,13.5l10.7-1.4c1.1-4.8,0-15.1-0.2-15.5l7.7,14.4L172.4,216.3z"/>
	<path class="st1_personal-data-1-78" d="M148.5,268.4h-2.8c-13.6,0-24.6-11-24.6-24.6v-26.1c0-0.4,0.3-0.7,0.7-0.7l14.5-1.2l1.6-11.4&#10;&#9;&#9;c0.1-0.3,0.3-0.6,0.7-0.6c0.3,0,0.7,0.2,0.7,0.5l3.6,12.9l9.5-1.3c0.9-4.8-0.2-14.2-0.3-14.7c-0.1-0.4,0.2-0.8,0.6-0.9&#10;&#9;&#9;c0.3-0.1,0.6,0.1,0.8,0.4l7.5,14.1l11.4,0.8c0.4,0,0.7,0.3,0.7,0.7v27.5C173.1,257.3,162.1,268.4,148.5,268.4z M122.5,218.4v25.4&#10;&#9;&#9;c0,12.8,10.4,23.2,23.2,23.2h2.8c12.8,0,23.2-10.4,23.2-23.2v-26.8l-11.2-0.7c-0.2,0-0.5-0.2-0.6-0.4l-6-11.2&#10;&#9;&#9;c0.3,3.6,0.5,9-0.2,12.1c-0.1,0.3-0.3,0.5-0.6,0.6l-10.7,1.4c-0.4,0-0.7-0.2-0.8-0.5l-2.8-10.2l-1.2,8.5c0,0.3-0.3,0.6-0.6,0.6&#10;&#9;&#9;L122.5,218.4z"/>
	<rect x="168.6" y="319.7" class="st0_personal-data-1-78" width="23.4" height="6.2"/>
	<path class="st1_personal-data-1-78" d="M147.4,246.7c-1.1,0-2.3-0.1-3.4-0.2c-0.5-0.1-1-0.4-1.2-0.8c-1.8-3,2.9-15.5,3.9-18c0.1-0.4,0.6-0.6,0.9-0.4&#10;&#9;&#9;c0,0,0,0,0,0c0.4,0.1,0.6,0.5,0.4,0.9c0,0,0,0,0,0c-2.1,5.5-5.1,14.9-4,16.8c0.1,0.1,0.1,0.1,0.1,0.1c2.2,0.2,4.5,0.2,6.8,0&#10;&#9;&#9;c0.4-0.1,0.7,0.2,0.8,0.6c0,0,0,0,0,0c0.1,0.4-0.2,0.8-0.6,0.8c0,0,0,0,0,0C149.9,246.7,148.7,246.7,147.4,246.7z"/>
</g>
<g id="data_personal-data-1-78">
	<path class="st3_personal-data-1-78" d="M307.3,189.1h119.3c1.2,0,2.1,1,2.1,2.1v1.7c0,1.2-1,2.1-2.1,2.1H307.3c-1.2,0-2.1-1-2.1-2.1v-1.7&#10;&#9;&#9;C305.2,190,306.1,189.1,307.3,189.1z"/>
	<path class="st3_personal-data-1-78" d="M307.3,236.6h70.9c1.2,0,2.1,1,2.1,2.1v1.7c0,1.2-1,2.1-2.1,2.1h-70.9c-1.2,0-2.1-1-2.1-2.1v-1.7&#10;&#9;&#9;C305.2,237.5,306.1,236.6,307.3,236.6z"/>
	<path class="st3_personal-data-1-78" d="M307.3,281.8h104.8c1.2,0,2.1,1,2.1,2.1v1.7c0,1.2-1,2.1-2.1,2.1H307.3c-1.2,0-2.1-1-2.1-2.1v-1.7&#10;&#9;&#9;C305.2,282.8,306.1,281.8,307.3,281.8z"/>
	<path class="st3_personal-data-1-78" d="M307.3,327.1h91.2c1.2,0,2.1,1,2.1,2.1v1.7c0,1.2-1,2.1-2.1,2.1h-91.2c-1.2,0-2.1-1-2.1-2.1v-1.7&#10;&#9;&#9;C305.2,328,306.1,327.1,307.3,327.1z"/>
	<path class="st0_personal-data-1-78" d="M274.1,204.3v-3.9c0-4.6-3.7-8.4-8.4-8.4l0,0l0,0c-4.6,0-8.4,3.7-8.4,8.3v0v3.9H274.1z"/>
	<path class="st3_personal-data-1-78" d="M274.1,205h-16.7c-0.4,0-0.7-0.3-0.7-0.7v-3.9c0-5,4.1-9.1,9.1-9.1c5,0,9,4.1,9,9.1v3.9&#10;&#9;&#9;C274.8,204.7,274.5,205,274.1,205z M258.1,203.6h15.3v-3.2c0-4.2-3.4-7.7-7.6-7.7s-7.7,3.4-7.7,7.6c0,0,0,0,0,0V203.6z"/>
	<circle class="st0_personal-data-1-78" cx="265.8" cy="186.1" r="6"/>
	<path class="st3_personal-data-1-78" d="M265.8,192.8c-3.7,0-6.7-3-6.7-6.7s3-6.7,6.7-6.7c3.7,0,6.7,3,6.7,6.7C272.4,189.8,269.4,192.8,265.8,192.8&#10;&#9;&#9;L265.8,192.8z M265.8,180.8c-2.9,0-5.3,2.3-5.3,5.2s2.3,5.3,5.2,5.3c2.9,0,5.3-2.3,5.3-5.2c0,0,0,0,0,0&#10;&#9;&#9;C271,183.2,268.6,180.9,265.8,180.8L265.8,180.8z"/>
	<polygon class="st0_personal-data-1-78" points="275.3,249.2 254.2,249.2 254.2,234.1 264.7,228 275.3,234.1 &#9;"/>
	<path class="st3_personal-data-1-78" d="M275.3,250h-21.1c-0.4,0-0.7-0.3-0.7-0.7v-15.2c0-0.3,0.1-0.5,0.4-0.6l10.6-6.1c0.2-0.1,0.5-0.1,0.7,0&#10;&#9;&#9;l10.6,6.1c0.2,0.1,0.3,0.4,0.4,0.6v15.1C276,249.6,275.7,250,275.3,250C275.3,250,275.3,250,275.3,250z M254.9,248.6h19.7v-14&#10;&#9;&#9;l-9.9-5.7l-9.9,5.7V248.6z"/>
	<rect x="261.1" y="238.6" class="st0_personal-data-1-78" width="7.4" height="10.6"/>
	<path class="st3_personal-data-1-78" d="M268.4,250h-7.4c-0.4,0-0.7-0.3-0.7-0.7c0,0,0,0,0,0v-10.7c0-0.4,0.3-0.7,0.7-0.7l0,0h7.4&#10;&#9;&#9;c0.4,0,0.7,0.3,0.7,0.7c0,0,0,0,0,0v10.6C269.1,249.6,268.8,250,268.4,250C268.4,250,268.4,250,268.4,250z M261.8,248.6h6v-9.2h-6&#10;&#9;&#9;V248.6z"/>
	<polyline class="st0_personal-data-1-78" points="250.9,235.9 264.7,228 278.5,235.9 &#9;"/>
	<path class="st3_personal-data-1-78" d="M278.5,236.6c-0.1,0-0.2,0-0.3-0.1l-13.4-7.7l-13.5,7.7c-0.3,0.2-0.8,0.1-1-0.3s-0.1-0.8,0.3-1l13.8-7.9&#10;&#9;&#9;c0.2-0.1,0.5-0.1,0.7,0l13.7,7.9c0.3,0.2,0.5,0.6,0.3,0.9c0,0,0,0,0,0.1C278.9,236.5,278.7,236.6,278.5,236.6z"/>
	<path class="st0_personal-data-1-78" d="M253.8,280.4h22.2c0.8,0,1.4,0.6,1.4,1.4v11c0,0.8-0.6,1.4-1.4,1.4h-22.2c-0.8,0-1.4-0.6-1.4-1.4v-11&#10;&#9;&#9;C252.3,281,253,280.4,253.8,280.4z"/>
	<path class="st3_personal-data-1-78" d="M275.4,294.9h-21c-1.5,0-2.7-1.2-2.7-2.7v-9.8c0-1.5,1.2-2.7,2.7-2.7c0,0,0,0,0,0h21c1.5,0,2.7,1.2,2.7,2.7v0&#10;&#9;&#9;v9.8C278.1,293.7,276.9,294.9,275.4,294.9z M254.4,281.1c-0.7,0-1.3,0.6-1.3,1.3v9.8c0,0.7,0.6,1.3,1.3,1.3h21&#10;&#9;&#9;c0.7,0,1.3-0.6,1.3-1.3v-9.8c0-0.7-0.6-1.3-1.3-1.3H254.4z"/>
	<path class="st0_personal-data-1-78" d="M261.6,276.6h7c0.9,0,1.7,0.8,1.7,1.7l0,0v2.1l0,0h-10.4l0,0v-2.1C259.9,277.4,260.6,276.6,261.6,276.6z"/>
	<path class="st3_personal-data-1-78" d="M270.4,281.1h-10.5c-0.4,0-0.7-0.3-0.7-0.7v0V279c0-1.7,1.4-3.1,3.1-3.1l0,0h5.7c1.7,0,3.1,1.4,3.1,3.1l0,0&#10;&#9;&#9;v1.4C271.1,280.8,270.8,281.1,270.4,281.1C270.4,281.1,270.4,281.1,270.4,281.1z M260.6,279.7h9.1V279c0-0.9-0.8-1.7-1.7-1.7h0&#10;&#9;&#9;h-5.7c-0.9,0-1.7,0.8-1.7,1.7v0L260.6,279.7z"/>
	<rect x="257.9" y="320.4" class="st0_personal-data-1-78" width="18" height="21"/>
	<path class="st3_personal-data-1-78" d="M275.9,342.1h-18c-0.4,0-0.7-0.3-0.7-0.7v0v-21c0-0.4,0.3-0.7,0.7-0.7h0h18c0.4,0,0.7,0.3,0.7,0.7v0v21&#10;&#9;&#9;C276.6,341.8,276.3,342.1,275.9,342.1L275.9,342.1z M258.6,340.7h16.6v-19.6h-16.6V340.7z"/>
	<rect x="253.4" y="317.4" class="st0_personal-data-1-78" width="18" height="21"/>
	<path class="st3_personal-data-1-78" d="M271.5,339h-18c-0.4,0-0.7-0.3-0.7-0.7l0,0v-21c0-0.4,0.3-0.7,0.7-0.7c0,0,0,0,0,0h18c0.4,0,0.7,0.3,0.7,0.7v0&#10;&#9;&#9;v21C272.2,338.7,271.8,339,271.5,339L271.5,339z M254.1,337.6h16.6v-19.5h-16.6V337.6z"/>
	<path class="st3_personal-data-1-78" d="M266.9,323.4h-9.7c-0.4,0-0.7-0.3-0.7-0.7c0-0.4,0.3-0.7,0.7-0.7h9.7c0.4,0,0.7,0.3,0.7,0.7&#10;&#9;&#9;C267.6,323.1,267.3,323.4,266.9,323.4z"/>
	<path class="st3_personal-data-1-78" d="M266.9,326.9h-9.7c-0.4,0-0.7-0.3-0.7-0.7c0-0.4,0.3-0.7,0.7-0.7h9.7c0.4,0,0.7,0.3,0.7,0.7&#10;&#9;&#9;S267.3,326.9,266.9,326.9C266.9,326.9,266.9,326.9,266.9,326.9z"/>
	<path class="st3_personal-data-1-78" d="M266.9,330.5h-9.7c-0.4,0-0.7-0.3-0.7-0.7c0-0.4,0.3-0.7,0.7-0.7h9.7c0.4,0,0.7,0.3,0.7,0.7&#10;&#9;&#9;C267.6,330.1,267.3,330.4,266.9,330.5z"/>
	<path class="st3_personal-data-1-78" d="M266.9,334h-9.7c-0.4,0-0.7-0.3-0.7-0.7c0-0.4,0.3-0.7,0.7-0.7h9.7c0.4,0,0.7,0.3,0.7,0.7S267.3,334,266.9,334&#10;&#9;&#9;C266.9,334,266.9,334,266.9,334z"/>
</g>
</svg>