<svg version="1.1" id="Layer_1" xmlns="http://www.w3.org/2000/svg" xmlns:xlink="http://www.w3.org/1999/xlink" x="0px" y="0px" viewBox="0 0 500 500" style="width: 144px;" xml:space="preserve" data-imageid="polaroid-4" imageName="Polaroid" class="illustrations_image">
<style type="text/css">
	.st0_polaroid-4{fill:#FFFFFF;}
	.st1_polaroid-4{fill:#093F68;}
	.st2_polaroid-4{fill:#68E1FD;}
	.st3_polaroid-4{fill:#DFEAEF;}
	.st4_polaroid-4{fill:#F56132;}
	.st5_polaroid-4{fill:#FFBC0E;}
	.st6_polaroid-4{fill:#70CC40;}
</style>
<g id="polaroid_polaroid-4">
	<path class="st0_polaroid-4" d="M107.4,84.9H392c5.7,0,10.4,4.4,10.8,10l11.1,142.9H85.6L96.7,94.9C97.1,89.3,101.8,84.9,107.4,84.9z"/>
	<path class="st1_polaroid-4" d="M413.8,239.7H85.6c-1.1,0-1.9-0.9-1.9-1.9c0-0.1,0-0.1,0-0.2L94.7,94.7c0.6-6.6,6.1-11.7,12.7-11.7H392&#10;&#9;&#9;c6.6,0,12.2,5.1,12.7,11.8l11.1,142.9c0.1,1.1-0.7,2-1.8,2.1C414,239.7,413.9,239.7,413.8,239.7L413.8,239.7z M87.7,235.8h324.1&#10;&#9;&#9;L400.8,95c-0.4-4.6-4.2-8.1-8.8-8.1H107.4c-4.6,0-8.4,3.5-8.8,8.1L87.7,235.8z"/>
	<path class="st0_polaroid-4" d="M420.7,276.4l-1,15.1l-4.4,65.9c-0.8,11.7-10.5,20.9-22.3,20.9H106.5c-11.8,0-21.5-9.1-22.3-20.9l-4.4-65.9&#10;&#9;&#9;l-1-15.1l6.8-38.6h328.3L420.7,276.4z"/>
	<path class="st1_polaroid-4" d="M392.9,380.2H106.5c-12.8,0-23.4-9.9-24.2-22.7l-5.4-81c0-0.2,0-0.3,0-0.5l6.8-38.6c0.2-0.9,1-1.6,1.9-1.6&#10;&#9;&#9;h328.3c0.9,0,1.7,0.7,1.9,1.6l6.8,38.5c0,0.2,0,0.3,0,0.5l-5.5,81C416.3,370.2,405.7,380.2,392.9,380.2z M80.7,276.5l5.4,80.8&#10;&#9;&#9;c0.7,10.7,9.6,19,20.4,19.1h286.4c10.7,0,19.6-8.3,20.4-19.1l5.4-80.8l-6.5-36.8h-325L80.7,276.5z"/>
	<path class="st1_polaroid-4" d="M419.6,291.5l-4.4,65.9c-0.8,11.7-10.5,20.9-22.3,20.9H106.5c-11.8,0-21.5-9.1-22.3-20.9l-4.4-65.9H419.6z"/>
	<path class="st1_polaroid-4" d="M392.9,380.2H106.5c-12.8,0-23.4-9.9-24.2-22.7l-4.4-65.9c0-0.5,0.1-1.1,0.5-1.5c0.4-0.4,0.9-0.6,1.4-0.6&#10;&#9;&#9;h339.9c0.5,0,1,0.2,1.4,0.6c0.4,0.4,0.5,0.9,0.5,1.5l-4.4,65.9C416.2,370.3,405.7,380.2,392.9,380.2z M81.8,293.4l4.3,63.9&#10;&#9;&#9;c0.7,10.7,9.6,19,20.4,19.1h286.4c10.7,0,19.6-8.3,20.4-19.1l4.3-63.9H81.8z"/>
	<path class="st2_polaroid-4 targetColor" d="M112.2,308h275c4,0,7.2,3.2,7.2,7.2v1.4c0,4-3.2,7.2-7.2,7.2h-275c-4,0-7.2-3.2-7.2-7.2v-1.4&#10;&#9;&#9;C105,311.2,108.2,308,112.2,308z" style="fill: rgb(26, 117, 232);"/>
	<path class="st1_polaroid-4" d="M386.5,325.7H112.9c-5.4,0-9.8-4.4-9.8-9.8c0-5.4,4.4-9.8,9.8-9.8c0,0,0,0,0,0h273.6c5.4,0,9.8,4.4,9.8,9.8&#10;&#9;&#9;C396.3,321.3,391.9,325.7,386.5,325.7z M112.9,310c-3.3,0-5.9,2.7-5.9,5.9c0,3.3,2.7,5.9,5.9,5.9h273.6c3.3,0,5.9-2.7,5.9-5.9&#10;&#9;&#9;c0-3.3-2.7-5.9-5.9-5.9H112.9z"/>
	<path class="st0_polaroid-4" d="M334.2,100.8H384c1.6,0,2.8,1.3,2.8,2.8v49.9c0,1.6-1.3,2.8-2.8,2.8h-49.9c-1.6,0-2.8-1.3-2.8-2.8v-49.9&#10;&#9;&#9;C331.4,102,332.6,100.8,334.2,100.8z"/>
	<path class="st1_polaroid-4" d="M381.4,158.2h-44.6c-4.1,0-7.4-3.3-7.4-7.4v-44.6c0-4.1,3.3-7.4,7.4-7.4h44.6c4.1,0,7.4,3.3,7.4,7.4v44.6&#10;&#9;&#9;C388.8,154.9,385.5,158.2,381.4,158.2z M336.8,102.7c-1.9,0-3.5,1.6-3.5,3.5c0,0,0,0,0,0v44.6c0,1.9,1.6,3.5,3.5,3.5h44.6&#10;&#9;&#9;c1.9,0,3.5-1.6,3.5-3.5v-44.6c0-1.9-1.6-3.5-3.5-3.5l0,0L336.8,102.7z"/>
	<path class="st3_polaroid-4" d="M359.1,150.9c-12.4,0-22.4-10-22.4-22.4s10-22.4,22.4-22.4c12.4,0,22.4,10,22.4,22.4&#10;&#9;&#9;C381.5,140.9,371.5,150.9,359.1,150.9z M359.1,110c-10.2,0-18.5,8.3-18.5,18.5s8.3,18.5,18.5,18.5c10.2,0,18.5-8.3,18.5-18.5&#10;&#9;&#9;c0,0,0,0,0,0C377.6,118.3,369.3,110,359.1,110L359.1,110z"/>
	<circle class="st2_polaroid-4 targetColor" cx="359.1" cy="204.1" r="16.1" style="fill: rgb(26, 117, 232);"/>
	<path class="st1_polaroid-4" d="M359.1,222.2c-10,0-18.1-8.1-18.1-18.1c0-10,8.1-18.1,18.1-18.1c10,0,18.1,8.1,18.1,18.1c0,0,0,0,0,0.1&#10;&#9;&#9;C377.1,214.1,369.1,222.2,359.1,222.2z M359.1,189.9c-7.8,0-14.2,6.3-14.2,14.2c0,7.8,6.3,14.2,14.2,14.2c7.8,0,14.2-6.3,14.2-14.2&#10;&#9;&#9;v0C373.3,196.3,366.9,189.9,359.1,189.9z"/>
	<circle class="st4_polaroid-4" cx="141.6" cy="196.8" r="23.5"/>
	<path class="st1_polaroid-4" d="M141.6,222.2c-14,0-25.4-11.4-25.4-25.4s11.4-25.4,25.4-25.4s25.4,11.4,25.4,25.4c0,0,0,0,0,0&#10;&#9;&#9;C167.1,210.8,155.7,222.2,141.6,222.2z M141.6,175.2c-11.9,0-21.5,9.6-21.5,21.5s9.6,21.5,21.5,21.5s21.5-9.6,21.5-21.5&#10;&#9;&#9;C163.2,184.9,153.5,175.2,141.6,175.2z"/>
	<path class="st2_polaroid-4 targetColor" d="M111.6,128.5h54.6c1.8,0,3.3,1.5,3.3,3.3v16c0,1.8-1.5,3.3-3.3,3.3h-54.6c-1.8,0-3.3-1.5-3.3-3.3v-16&#10;&#9;&#9;C108.3,130,109.8,128.5,111.6,128.5z" style="fill: rgb(26, 117, 232);"/>
	<path class="st1_polaroid-4" d="M163.1,153h-48.4c-4.6,0-8.3-3.7-8.3-8.3v-9.8c0-4.6,3.7-8.3,8.3-8.3h48.4c4.6,0,8.3,3.7,8.3,8.3v9.8&#10;&#9;&#9;C171.4,149.3,167.7,153,163.1,153z M114.7,130.5c-2.4,0-4.4,2-4.4,4.4v9.8c0,2.4,2,4.4,4.4,4.4h48.4c2.4,0,4.4-2,4.4-4.4v-9.8&#10;&#9;&#9;c0-2.4-2-4.4-4.4-4.4H114.7z"/>
	<path class="st2_polaroid-4 targetColor" d="M208.1,63.3h83.1c4.2,0,8.1,2.4,10.1,6.1l8.1,15.6H189.9l8.1-15.6C200,65.6,203.9,63.3,208.1,63.3z" style="fill: rgb(26, 117, 232);"/>
	<path class="st1_polaroid-4" d="M309.5,86.9H189.9c-1.1,0-1.9-0.9-2-1.9c0-0.3,0.1-0.6,0.2-0.9l8.1-15.6c2.3-4.4,6.8-7.1,11.8-7.1h83.1&#10;&#9;&#9;c5,0,9.5,2.7,11.8,7.1l8.2,15.6c0.5,0.9,0.1,2.1-0.8,2.6C310.1,86.8,309.8,86.8,309.5,86.9L309.5,86.9z M193.1,83h113.2l-6.7-12.7&#10;&#9;&#9;c-1.6-3.1-4.8-5.1-8.4-5.1h-83.1c-3.5,0-6.7,1.9-8.4,5.1L193.1,83z"/>
	<rect x="214.8" y="194.1" class="st4_polaroid-4" width="17.5" height="97.3"/>
	<path class="st1_polaroid-4" d="M232.2,293.4h-17.5c-1.1,0-1.9-0.9-1.9-1.9l0,0v-97.3c0-1.1,0.9-1.9,1.9-1.9l0,0h17.5c1.1,0,1.9,0.9,1.9,1.9&#10;&#9;&#9;l0,0v97.3C234.2,292.5,233.3,293.4,232.2,293.4L232.2,293.4z M216.7,289.5h13.6v-93.5h-13.6V289.5z"/>
	<rect x="232.2" y="194.1" class="st5_polaroid-4" width="17.5" height="97.3"/>
	<path class="st1_polaroid-4" d="M249.7,293.4h-17.5c-1.1,0-1.9-0.9-1.9-1.9l0,0v-97.3c0-1.1,0.9-1.9,1.9-1.9l0,0h17.5c1.1,0,1.9,0.9,1.9,1.9&#10;&#9;&#9;l0,0v97.3C251.6,292.5,250.8,293.4,249.7,293.4L249.7,293.4z M234.2,289.5h13.6v-93.5h-13.6V289.5z"/>
	<rect x="249.7" y="194.1" class="st6_polaroid-4" width="17.5" height="97.3"/>
	<path class="st1_polaroid-4" d="M267.2,293.4h-17.5c-1.1,0-1.9-0.9-1.9-1.9l0,0v-97.3c0-1.1,0.9-1.9,1.9-1.9l0,0h17.5c1.1,0,1.9,0.9,1.9,1.9&#10;&#9;&#9;l0,0v97.3C269.1,292.5,268.2,293.4,267.2,293.4z M251.6,289.5h13.6v-93.5h-13.6L251.6,289.5z"/>
	<rect x="267.2" y="194.1" class="st2_polaroid-4 targetColor" width="17.5" height="97.3" style="fill: rgb(26, 117, 232);"/>
	<path class="st1_polaroid-4" d="M284.6,293.4h-17.5c-1.1,0-1.9-0.9-1.9-1.9l0,0v-97.3c0-1.1,0.9-1.9,1.9-1.9l0,0h17.5c1.1,0,1.9,0.9,1.9,1.9&#10;&#9;&#9;l0,0v97.3C286.6,292.5,285.7,293.4,284.6,293.4L284.6,293.4z M269.1,289.5h13.6v-93.5h-13.6L269.1,289.5z"/>
	<path class="st1_polaroid-4" d="M284.6,239.7h-69.9c-1.1,0-1.9-0.9-1.9-1.9s0.9-1.9,1.9-1.9h69.9c1.1,0,1.9,0.9,1.9,1.9&#10;&#9;&#9;S285.7,239.7,284.6,239.7L284.6,239.7z"/>
	<circle class="st2_polaroid-4 targetColor" cx="249.7" cy="156.1" r="59.8" style="fill: rgb(26, 117, 232);"/>
	<path class="st1_polaroid-4" d="M249.7,217.8c-34.1,0-61.7-27.6-61.7-61.7s27.6-61.7,61.7-61.7s61.7,27.6,61.7,61.7v0&#10;&#9;&#9;C311.4,190.2,283.8,217.8,249.7,217.8z M249.7,98.3c-31.9,0-57.9,25.9-57.9,57.8c0,31.9,25.9,57.9,57.8,57.9&#10;&#9;&#9;c31.9,0,57.9-25.9,57.9-57.8c0,0,0,0,0,0C307.5,124.2,281.6,98.3,249.7,98.3z"/>
	<circle class="st1_polaroid-4" cx="249.7" cy="156.1" r="38"/>
	<path class="st1_polaroid-4" d="M249.7,196.1c-22.1,0-39.9-17.9-39.9-39.9c0-22.1,17.9-39.9,39.9-39.9c22.1,0,39.9,17.9,39.9,39.9c0,0,0,0,0,0&#10;&#9;&#9;C289.6,178.2,271.7,196,249.7,196.1z M249.7,120.1c-19.9,0-36.1,16.1-36.1,36.1s16.1,36.1,36.1,36.1s36.1-16.1,36.1-36.1&#10;&#9;&#9;c0,0,0,0,0,0C285.7,136.2,269.6,120.1,249.7,120.1L249.7,120.1z"/>
	<path class="st0_polaroid-4" d="M234.7,133.6c-1.1,0-1.9-0.9-1.9-2c0-0.7,0.4-1.3,0.9-1.6c3-1.8,6.2-3.1,9.6-3.9c1-0.2,2.1,0.4,2.3,1.5&#10;&#9;&#9;c0.2,1-0.4,2.1-1.5,2.3l0,0c-3,0.6-5.8,1.8-8.4,3.4C235.4,133.5,235,133.6,234.7,133.6z"/>
	<path class="st0_polaroid-4" d="M222.8,168.2c-0.8,0-1.5-0.5-1.8-1.3c-3.8-10.3-1.9-21.8,5-30.2c0.7-0.8,1.9-0.9,2.7-0.2&#10;&#9;&#9;c0.8,0.7,0.9,1.9,0.3,2.7c-6.1,7.4-7.7,17.5-4.4,26.4c0.4,1-0.1,2.1-1.1,2.5c0,0,0,0,0,0C223.3,168.2,223,168.2,222.8,168.2z"/>
</g>
<g id="photo_polaroid-4">
	<polygon class="st0_polaroid-4" points="399.9,437.5 99.5,437.5 126.7,308 372.7,308 &#9;"/>
	<path class="st1_polaroid-4" d="M399.9,439.4H99.5c-1.1,0-1.9-0.9-1.9-1.9c0-0.1,0-0.3,0-0.4l27.2-129.5c0.2-0.9,1-1.5,1.9-1.5h246&#10;&#9;&#9;c0.9,0,1.7,0.6,1.9,1.5l27.2,129.5c0.2,1-0.4,2.1-1.5,2.3C400.2,439.4,400,439.4,399.9,439.4L399.9,439.4z M101.9,435.5h295.7&#10;&#9;&#9;L371.1,310H128.3L101.9,435.5z"/>
	<polygon class="st2_polaroid-4 targetColor" points="367.2,407.1 132.2,407.1 149.2,308 350.1,308 &#9;" style="fill: rgb(26, 117, 232);"/>
	<path class="st1_polaroid-4" d="M367.2,409H132.2c-1.1,0-1.9-0.9-1.9-1.9c0-0.1,0-0.2,0-0.3l17-99.1c0.2-0.9,1-1.6,1.9-1.6h200.9&#10;&#9;&#9;c0.9,0,1.8,0.7,1.9,1.6l17,99.1c0.2,1.1-0.5,2-1.6,2.2C367.4,409,367.2,409.1,367.2,409L367.2,409z M134.5,405.2h230.3L348.5,310&#10;&#9;&#9;H150.9L134.5,405.2z"/>
	<path class="st1_polaroid-4" d="M222.7,383.2c-0.4,0-0.7-0.1-1-0.3l-77.5-49.5c-0.9-0.6-1.2-1.8-0.6-2.7s1.8-1.2,2.7-0.6l0,0l76.3,48.8&#10;&#9;&#9;l67.6-59.1c0.8-0.7,2.1-0.5,2.7,0.3c0.6,0.8,0.6,1.9-0.2,2.6L224,382.8C223.6,383.1,223.2,383.2,222.7,383.2z"/>
	<path class="st1_polaroid-4" d="M317.7,368.2c-0.4,0-0.8-0.1-1.1-0.4l-42.5-31c-0.8-0.7-1-1.9-0.3-2.7c0.6-0.8,1.8-1,2.6-0.4l41.2,30&#10;&#9;&#9;l35.1-34.7c0.7-0.8,1.9-0.9,2.7-0.1s0.9,1.9,0.1,2.7c0,0-0.1,0.1-0.1,0.1l-36.3,35.9C318.7,368,318.2,368.3,317.7,368.2z"/>
	<path class="st5_polaroid-4" d="M295.1,375.3c0.5,6.8-5.2,12.5-12.8,12.5s-13.8-5.6-14-12.5c-0.2-6.7,5.5-12,12.8-12S294.7,368.6,295.1,375.3z&#10;&#9;&#9;"/>
	<path class="st1_polaroid-4" d="M282.4,389.7c-8.6,0-15.7-6.4-15.9-14.3c-0.1-3.5,1.2-7,3.7-9.5c2.9-2.9,6.9-4.5,11-4.5&#10;&#9;&#9;c8.2,0,15.4,6.2,15.9,13.8c0.3,3.6-1,7.2-3.5,9.9C290.6,388,286.6,389.7,282.4,389.7z M281.2,365.2c-3.1,0-6,1.2-8.2,3.3&#10;&#9;&#9;c-1.8,1.8-2.7,4.2-2.6,6.7c0.2,5.8,5.6,10.6,12.1,10.6c3.1,0.1,6.2-1.2,8.4-3.4c1.8-1.9,2.7-4.4,2.5-6.9l0,0&#10;&#9;&#9;C292.8,369.8,287.4,365.2,281.2,365.2L281.2,365.2z"/>
</g>
</svg>