<svg id="_0349_product_manager" xmlns="http://www.w3.org/2000/svg" viewBox="0 0 500 500" data-imageid="product-manager-33" imageName="Product Manager" class="illustrations_image" style="width: 144px;"><defs><style>.cls-1_product-manager-33{fill:#fff;}.cls-2_product-manager-33{fill:#f4a28c;}.cls-3_product-manager-33{opacity:.46;}.cls-3_product-manager-33,.cls-4_product-manager-33,.cls-5_product-manager-33,.cls-6_product-manager-33,.cls-7_product-manager-33,.cls-8_product-manager-33{fill:none;}.cls-9_product-manager-33{fill:#a5a5a5;}.cls-10_product-manager-33{fill:#ce8172;}.cls-11_product-manager-33{fill:#e6e6e6;}.cls-4_product-manager-33{opacity:.09;}.cls-5_product-manager-33{opacity:.08;}.cls-6_product-manager-33{opacity:.5;}.cls-7_product-manager-33{opacity:.31;}.cls-8_product-manager-33{opacity:.3;}.cls-12_product-manager-33{fill:#24285b;}.cls-13_product-manager-33{fill:#000001;}.cls-14_product-manager-33{fill:#ffd200;}.cls-15_product-manager-33{fill:#68e1fd;}</style></defs><g id="bg_product-manager-33"><g class="cls-8_product-manager-33"><path class="cls-11_product-manager-33" d="m99.88,119.99C51.33,141.49,15.31,196.03,8.21,262.01c-5.98,55.59,8.32,117.03,92.48,134.53,163.77,34.06,317.15,43.76,356.3-48.12,39.16-91.88,36.84-208.87-56-259.46-58.46-31.86-206.3-10.97-301.12,31.03Z"/></g><path class="cls-11_product-manager-33" d="m434.06,208.34c4.98-1.86,7.9-5.72,9.23-10.82v-5.49c-.78-3.54-1.45-7.14-2.37-10.63-2.48-9.39-5.7-18.46-11.55-26.39-1.06-1.38-2.23-2.71-3.51-3.95-4.27-4.15-10.33-4.96-15.73-2.41-11.21,5.35-22.94,6.66-34.95,3.68-15-3.77-27.12-18.64-28.71-34.44-.81-8.04.23-15.73,3.45-23.15.69-1.68,1.15-3.47,1.59-5.21.81-3.12.37-6.13-1.68-8.54-2.8-3.31-5.54-6.84-8.95-9.49-10.73-8.41-23.22-12.38-36.79-13.18-2.5-.14-4.68.67-6.5,2.23-3.05,2.62-5.56,5.67-7.12,9.44-8.98,21.79-33.43,32.47-54.88,24.32-12.13-4.64-19.98-14.07-25.05-25.86-.27-.6-.48-1.2-.78-1.81-3.38-6.78-7.33-9.07-14.81-8.2-12.88,1.51-24.99,5.4-35.87,12.59-2.05,1.36-3.95,2.99-5.67,4.77-3.9,4.15-5.12,8.79-3.6,14.56,3.44,12.91,2.94,25.9-1.38,38.56-3.91,11.5-12.81,17.87-23.79,21.47-10.27,3.35-20.62,2.67-30.77-.85-1.61-.57-3.24-.99-4.84-1.52-5.24-1.84-9.58-.25-13.41,3.44-3.74,3.58-6.32,7.95-8.59,12.51-4.38,8.8-7.35,18-7.81,27.88-.18,3.74.81,7.25,2.53,10.52,1.47,2.83,3.6,4.89,6.61,6.09,8.82,3.53,16.21,9.16,22.48,16.24,11.67,13.21,12.35,32.42,1.54,46.77-6.24,8.25-14.01,14.83-23.7,18.69-5.86,2.36-8.4,6.61-9.12,12.49-.64,5.37.44,10.54,1.77,15.68,2.23,8.59,5.83,16.58,10.59,24.09,3.4,5.39,7.99,8.98,14.56,9.21,2.41.11,4.94-.41,7.28-1.08,10.81-3.06,21.65-3.88,32.66-.99,4.64,1.2,8.68,3.49,12.08,6.87,12.79,12.58,14.03,29.51,8.63,43.24-1.03,2.62-2.23,5.15-3.1,7.83-1.51,4.77-.64,9.11,2.62,13,3.74,4.39,8.34,7.71,13.36,10.43,9.64,5.21,19.8,9.03,30.75,10.52,2.41.32,4.96.23,7.39-.12,5.81-.89,9.8-4.2,11.96-9.74,3.6-9.18,9.49-16.56,17.29-22.21.85-.64,1.72-1.22,2.62-1.81,4.52-2.94,9.39-4.82,14.37-5.69,12.22-2.16,25.08,1.77,34.83,11.32,5.24,5.12,9.19,11.09,12.03,17.87,1.36,3.26,3.44,6.13,6.25,8.36,2.76,2.2,5.93,2.52,9.28,2.2,14.01-1.45,26.62-6.61,37.94-14.93,7.3-5.37,9.02-13.62,5.58-21.31-5.37-11.9-5.69-24.22-.27-36.26,5.62-12.36,15.11-19.54,28.82-21.2,9.1-1.08,17.96-.3,26.45,2.69,10.1,3.53,18.78-1.12,23.54-6.98,6.87-8.4,10.75-18.23,12.81-28.82.58-3.01.76-6.08.9-9.12.21-4.77-1.81-8.75-5.24-11.8-2.32-2.02-5-3.88-7.83-5.07-28.47-11.78-34.01-47.35-14.26-67.79,5.38-5.58,11.53-9.92,18.83-12.7Zm-151.67,150.89c-10.13,2.92-20.83,4.48-31.9,4.48-15.89,0-30.84-3.29-44.36-9.12-41.59-17.93-69.6-60-69.28-105.43.46-63.03,51.12-113.74,113.9-113.67,63.35.04,114.52,51.07,114.33,114.03-.16,52.2-35.09,95.99-82.69,109.72Z"/><g class="cls-4_product-manager-33"><path class="cls-13_product-manager-33" d="m283.14,366.12c-3.56,8.47-23.33,9.41-30.95,11.55-1.75.5-3.56,1.08-4.89,2.32-1.42,1.31-2.14,3.17-2.62,5.03-1.36,5.49-.69,11.18-.28,16.86-4.98.87-9.85,2.75-14.37,5.69-.9.58-1.77,1.17-2.62,1.81-.35-14.08,1.06-28.2,4.25-41.91-6.93-2.55-14.54,3.26-17.18,10.17-2.66,6.89-1.91,14.54-2.23,21.93-.32,7.51-1.79,14.97-4.32,22.04-.94,2.66-2.13,5.37-4.32,7.14-2.2,1.77-5.67,2.25-7.76.35-2.62-2.39-1.65-6.63-.8-10.06,4.2-16.93.57-35,4.3-52.04.89-4,2.25-8.06,5.12-10.97.51-.53,1.08-1.01,1.67-1.43,3.21-2.41,7.35-3.47,11.34-4.25,15.62-2.99,31.85-2.8,47.39.58,4.5.97,13.99,3.47,17.54,8.31,1.4,1.91,1.88,4.2.74,6.89Z"/></g></g><g id="person_product-manager-33"><path class="cls-15_product-manager-33 targetColor" d="m201.57,227.95s-14.48,27.37-3.55,62c10.93,34.62-16.43,50.83,35.11,57.42,51.53,6.59-31.56-119.41-31.56-119.41Z" style="fill: rgb(26, 117, 232);"/><g class="cls-3_product-manager-33"><path class="cls-1_product-manager-33" d="m201.57,227.95s-14.48,27.37-3.55,62c10.93,34.62-16.43,50.83,35.11,57.42,51.53,6.59-31.56-119.41-31.56-119.41Z"/></g><path class="cls-2_product-manager-33" d="m239.42,156.92s-4.41,7.5-5.57,13.32c-.47,2.36,1.09,4.7,3.46,5.13,2.94.54,7.08.42,9.93-3.31l5.61-5.74s3.39-3.72.48-9.01c-2.91-5.29-11.46-5.1-13.91-.4Z"/><polygon class="cls-2_product-manager-33" points="248.81 167.28 254.56 195.18 238.96 197.25 240.99 176.65 248.81 167.28"/><path class="cls-2_product-manager-33" d="m236.89,161.78l-3.63,1.98c-.9.49-.98,1.74-.15,2.35l2.73,1.99,1.05-6.32Z"/><g class="cls-7_product-manager-33"><path class="cls-10_product-manager-33" d="m240.95,175.56s5.74-1,7.7-2.71c0,0-1.04,12.93-8.69,14.31l1-11.6Z"/></g><path class="cls-2_product-manager-33" d="m245.74,166.76s1.5-2.99,3.66-1.68c2.16,1.31.02,5.65-3.26,4.59l-.4-2.91Z"/><path class="cls-12_product-manager-33" d="m256.54,165.31l-2.56,2.56s-4.19,7.2-10.43,9.84c-6.24,2.63-13.29-.13-12.46-5.76.95-6.46,4.75-3.83,10.44-2.6,5.69,1.24,6.84-6.52,6.84-6.52-2.48-.62-3.83-2.4-4.57-4.2l-2.85-2.56c-2.75-2.46-2.67-6.81.18-9.15,1.61-1.32,3.59-2.3,5.85-2.1,6.09.54,17.44,12.95,9.55,20.49Z"/><path class="cls-2_product-manager-33" d="m251.46,164.78s4.72-1.32,5.37,2.33c.65,3.65-4.58,4.98-7.15,2.18,0,0,1.76-1.77,1.77-4.5Z"/><g class="cls-5_product-manager-33"><polygon class="cls-13_product-manager-33" points="230.83 421.77 228.45 358.25 208.14 360.54 201.18 384.59 204.26 420.73 230.83 421.77"/></g><path class="cls-15_product-manager-33 targetColor" d="m228.62,413.35s-2.39,5.91-7.83,6.16-7.06,5.49-2.24,7.06c4.82,1.57,17.63-4.2,17.63-4.2l-.05-7.83-7.51-1.18Z" style="fill: rgb(26, 117, 232);"/><path class="cls-15_product-manager-33 targetColor" d="m237.65,196.89l15.6-2.07s51.55,2.08,59.89,20.08c8.34,18,3.89,83.65-28.02,136.43l-61.13-.6s4.93-39.49-5.61-61.51c-10.54-22.02-44.12-69.23,19.27-92.34Z" style="fill: rgb(26, 117, 232);"/><path class="cls-12_product-manager-33" d="m285.11,351.34l-29.69-5.66c-18.36-3.5-35.1,11.26-33.91,29.92l2.43,38.09,14.65.57.11-35.57c.03-8.48,7.79-14.84,16.1-13.17,12.63,2.54,28.42,2.27,30.31-14.18Z"/><path class="cls-15_product-manager-33 targetColor" d="m198.22,412.17s-2.39,5.91-7.83,6.16c-5.43.25-7.06,5.49-2.24,7.06,4.82,1.57,17.63-4.2,17.63-4.2l-.05-7.83-7.51-1.18Z" style="fill: rgb(26, 117, 232);"/><g class="cls-5_product-manager-33"><path class="cls-13_product-manager-33" d="m284.97,220.15s-17.5,14.18-14.74,30.69c.45,2.67.89,5.89,1.33,9.42,3.42,27.67-5.77,55.43-24.92,75.69l-11.14,11.78,49.62,3.6,4.58-8.16,24.69-37.64-29.41-85.38Z"/></g><path class="cls-12_product-manager-33" d="m254.72,350.15l-29.69-5.66c-18.36-3.5-35.1,11.26-33.91,29.92l2.43,38.09,14.65.57.11-35.57c.03-8.48,7.79-14.84,16.1-13.17,12.63,2.54,28.42,2.27,30.31-14.18Z"/><path class="cls-15_product-manager-33 targetColor" d="m313.94,216.56c10.69,16.36,19.38,51.9,8.72,101.09-3.24,14.97-16.39,25.74-31.7,26.12l-46.77,1.13.59-15.22,35.65-3.75c8.3-.87,13.85-8.93,11.74-16.99-5.44-20.8-13.67-58.43-10.14-84.89,2.14-16.07,23.04-21.07,31.9-7.5Z" style="fill: rgb(26, 117, 232);"/><g class="cls-3_product-manager-33"><path class="cls-1_product-manager-33" d="m313.94,216.56c10.69,16.36,19.38,51.9,8.72,101.09-3.24,14.97-16.39,25.74-31.7,26.12l-46.77,1.13.59-15.22,35.65-3.75c8.3-.87,13.85-8.93,11.74-16.99-5.44-20.8-13.67-58.43-10.14-84.89,2.14-16.07,23.04-21.07,31.9-7.5Z"/></g><path class="cls-2_product-manager-33" d="m244.64,333.38s-18.92-1.21-16.6,8.76c2.31,9.98,16.16,2.77,16.16,2.77l.45-11.53Z"/><polygon class="cls-9_product-manager-33" points="181.06 346.01 175.1 302.51 229.3 304.62 232.57 341.63 257.41 342.94 257.18 348.97 181.06 346.01"/><circle class="cls-1_product-manager-33" cx="203.52" cy="324.36" r="5.43"/><path class="cls-15_product-manager-33 targetColor" d="m266.52,195.98s6.8-6.64-10.87-8.08-35.48.02-31.87,15.24,42.74-7.16,42.74-7.16Z" style="fill: rgb(26, 117, 232);"/><g class="cls-3_product-manager-33"><path class="cls-1_product-manager-33" d="m266.52,195.98s6.8-6.64-10.87-8.08-35.48.02-31.87,15.24,42.74-7.16,42.74-7.16Z"/></g></g><g id="time_product-manager-33"><rect class="cls-14_product-manager-33" x="54.89" y="56.95" width="130.6" height="92.26"/><g class="cls-6_product-manager-33"><path class="cls-1_product-manager-33" d="m120.19,74.88c-15.57,0-28.2,12.63-28.2,28.2s12.63,28.2,28.2,28.2,28.2-12.63,28.2-28.2-12.61-28.2-28.2-28.2Zm0,48.15c-11.02,0-19.95-8.93-19.95-19.95s8.93-19.95,19.95-19.95,19.95,8.93,19.95,19.95-8.93,19.95-19.95,19.95Z"/><polygon class="cls-1_product-manager-33" points="135.63 103.97 119.77 103.97 112.93 95.55 114.31 94.43 120.61 102.2 135.63 102.2 135.63 103.97"/></g></g><g id="bulb_product-manager-33"><rect class="cls-14_product-manager-33" x="79.49" y="327.58" width="81.39" height="65.84"/><g class="cls-6_product-manager-33"><path class="cls-1_product-manager-33" d="m113.29,366.85h13.79c3.7-5.67,6.17-9.77,6.17-14.45,0-7.22-5.85-13.07-13.07-13.07s-13.07,5.85-13.07,13.07c0,4.68,2.47,8.78,6.17,14.45Z"/><rect class="cls-1_product-manager-33" x="113.07" y="368.59" width="14.24" height="1.88" rx=".64" ry=".64"/><rect class="cls-1_product-manager-33" x="113.07" y="371.27" width="14.24" height="1.88" rx=".64" ry=".64"/><rect class="cls-1_product-manager-33" x="113.07" y="373.94" width="14.24" height="1.88" rx=".64" ry=".64"/><path class="cls-1_product-manager-33" d="m114.15,377.57c.96,2.39,3.3,4.09,6.04,4.09s5.07-1.69,6.04-4.09h-12.08Z"/></g></g><g id="chart_product-manager-33"><rect class="cls-14_product-manager-33" x="348.9" y="237.21" width="130.6" height="92.26"/><g class="cls-8_product-manager-33"><rect class="cls-1_product-manager-33" x="377.46" y="296.18" width="10.31" height="11.89"/></g><g class="cls-8_product-manager-33"><rect class="cls-1_product-manager-33" x="398.66" y="285.27" width="10.31" height="22.81"/></g><g class="cls-8_product-manager-33"><rect class="cls-1_product-manager-33" x="419.86" y="278.07" width="10.31" height="30.01"/></g><g class="cls-8_product-manager-33"><rect class="cls-1_product-manager-33" x="441.06" y="255.45" width="10.31" height="52.63"/></g><g class="cls-8_product-manager-33"><rect class="cls-1_product-manager-33" x="369.32" y="308.07" width="89.78" height="3.16"/></g><g class="cls-8_product-manager-33"><polygon class="cls-1_product-manager-33" points="377.46 281.76 423.44 257.32 424.8 259.56 429.14 253.36 421.14 253 422.39 255.41 376 279.14 377.46 281.76"/></g></g></svg>