<svg id="_0344_salesman" xmlns="http://www.w3.org/2000/svg" xmlns:xlink="http://www.w3.org/1999/xlink" viewBox="0 0 500 500" data-imageid="salesman-99" imageName="Salesman" class="illustrations_image" style="width: 144px;"><defs><style>.cls-1_salesman-99{fill:url(#linear-gradient);}.cls-1_salesman-99,.cls-2_salesman-99,.cls-3_salesman-99,.cls-4_salesman-99,.cls-5_salesman-99,.cls-6_salesman-99,.cls-7_salesman-99,.cls-8_salesman-99,.cls-9_salesman-99,.cls-10_salesman-99,.cls-11_salesman-99,.cls-12_salesman-99{stroke-width:0px;}.cls-13_salesman-99{fill:none;stroke-width:3.85px;}.cls-13_salesman-99,.cls-14_salesman-99{stroke:#68e1fd;stroke-linecap:round;stroke-miterlimit:10;}.cls-2_salesman-99{fill:url(#linear-gradient-4-salesman-99);}.cls-3_salesman-99{fill:url(#linear-gradient-2-salesman-99);}.cls-4_salesman-99{fill:url(#linear-gradient-3-salesman-99);}.cls-5_salesman-99{fill:url(#linear-gradient-7-salesman-99);}.cls-6_salesman-99{fill:url(#linear-gradient-5-salesman-99);}.cls-7_salesman-99{fill:url(#linear-gradient-6-salesman-99);}.cls-14_salesman-99{fill:#fff;stroke-width:2.26px;}.cls-8_salesman-99{fill:#231f20;}.cls-9_salesman-99{fill:#ffaa71;}.cls-10_salesman-99,.cls-11_salesman-99,.cls-12_salesman-99{fill:#68e1fd;}.cls-11_salesman-99{opacity:.43;}.cls-11_salesman-99,.cls-12_salesman-99{isolation:isolate;}.cls-12_salesman-99{opacity:.25;}</style><linearGradient id="linear-gradient-salesman-99" x1="-1028.94" y1="2864.95" x2="-1033.51" y2="2665.15" gradientTransform="translate(1289 3047.03) scale(1 -1)" gradientUnits="userSpaceOnUse"><stop offset="0" stop-color="#231f20" stop-opacity="0"/><stop offset="1" stop-color="#231f20"/></linearGradient><linearGradient id="linear-gradient-2-salesman-99" x1="-982.82" y1="2747.53" x2="-978.55" y2="2902.46" gradientTransform="translate(1237.18 3041.25) scale(1 -1)" xlink:href="#linear-gradient-salesman-99"/><linearGradient id="linear-gradient-3-salesman-99" x1="-981.72" y1="2915.02" x2="-972.02" y2="2882.48" gradientTransform="translate(1237.18 3041.25) scale(1 -1)" xlink:href="#linear-gradient-salesman-99"/><linearGradient id="linear-gradient-4-salesman-99" x1="-1052.8" y1="2894.11" x2="-1020.83" y2="2891.4" gradientTransform="translate(1289 3047.03) scale(1 -1)" gradientUnits="userSpaceOnUse"><stop offset="0" stop-color="#000"/><stop offset=".55" stop-color="#000" stop-opacity=".07"/><stop offset="1" stop-color="#000" stop-opacity="0"/></linearGradient><linearGradient id="linear-gradient-5-salesman-99" x1="-1006.29" y1="2891.14" x2="-1026.28" y2="2892.85" xlink:href="#linear-gradient-salesman-99"/><linearGradient id="linear-gradient-6-salesman-99" x1="-1048.8" y1="2883.55" x2="-999.13" y2="2792.6" xlink:href="#linear-gradient-salesman-99"/><linearGradient id="linear-gradient-7-salesman-99" x1="-939.43" y1="2813.55" x2="-916.88" y2="2878.05" gradientTransform="translate(1237.18 3041.25) scale(1 -1)" gradientUnits="userSpaceOnUse"><stop offset="0" stop-color="#000"/><stop offset=".48" stop-color="#000" stop-opacity=".07"/><stop offset="1" stop-color="#000" stop-opacity="0"/></linearGradient></defs><g id="background_salesman-99"><path class="cls-12_salesman-99 targetColor" d="M467.07,322.31c-1.99,18.61-5.4,38.25-18.95,52.72-1.57,1.66-3.23,3.24-4.98,4.71-9.19,7.75-20.76,13.3-31.82,19.05-42.1,21.82-80.55,49.35-125.01,67.43-44.47,18.07-98.11,25.68-141.84,6.32-24.14-10.68-43.03-28.58-59.02-47.63-11.85-13.97-22.26-29.11-31.08-45.16-10.46-18.81-17.7-39.24-21.4-60.44-6.3-38.33,1.92-79.3,27.4-111.01,14.07-17.51,32.8-31.73,48.06-48.44,31.55-34.54,47.71-79.05,83.57-110.23,42.22-36.77,159.93-65.13,192.72-3.75,16.2,30.37,3.22,67.03,15.62,98.52,13.73,34.87,46.38,61.32,60.26,96.22,10.34,26,9.46,54.32,6.47,81.71Z" style="fill: rgb(104, 225, 253);"/><path class="cls-11_salesman-99 targetColor" d="M443.18,379.74c-9.19,7.75-20.76,13.3-31.82,19.05-42.14,21.82-80.59,49.35-125.06,67.43-44.47,18.07-98.11,25.68-141.84,6.32-24.14-10.68-43.03-28.58-59.02-47.63-11.85-13.97-22.26-29.11-31.08-45.16h388.81Z" style="fill: rgb(104, 225, 253);"/><path class="cls-11_salesman-99 targetColor" d="M362,391.71c0,9-49.84,16.27-111.31,16.27s-111.31-7.27-111.31-16.27c0-4.73,13.87-9,36.01-11.97h150.64c22.13,2.97,35.98,7.24,35.98,11.97Z" style="fill: rgb(104, 225, 253);"/></g><g id="graphic_data_salesman-99"><polygon class="cls-12_salesman-99 targetColor" points="121.83 351.65 121.83 291.01 178.44 259.1 267.23 281.65 384.74 210.04 384.42 352.74 121.83 351.65" style="fill: rgb(104, 225, 253);"/><polyline class="cls-13_salesman-99" points="127.25 285.99 178.25 258.32 267.23 281.65 384.96 211.13"/><path class="cls-10_salesman-99 targetColor" d="M110.61,354.19h283.58c.78,0,1.42-.64,1.42-1.42s-.64-1.42-1.42-1.42H113.54v-157.04c0-.78-.64-1.42-1.42-1.42s-1.42.64-1.42,1.42l-.09,159.88Z" style="fill: rgb(104, 225, 253);"/><circle class="cls-14_salesman-99" cx="178.44" cy="259.1" r="4.64"/><circle class="cls-14_salesman-99" cx="384.74" cy="210.04" r="4.64"/><circle class="cls-14_salesman-99" cx="125.98" cy="286.36" r="4.64" transform="translate(-168.6 391.72) rotate(-85.93)"/></g><g id="character_salesman-99"><polygon class="cls-8_salesman-99" points="233.6 237.3 228.56 377.63 244.91 379.16 256.14 274.69 264.32 380.11 282.6 378.21 279.54 238.16 233.6 237.3"/><polygon class="cls-1_salesman-99" points="233.6 237.3 228.56 377.63 244.91 379.16 256.14 274.69 264.32 380.11 282.6 378.21 279.54 238.16 233.6 237.3"/><path class="cls-10_salesman-99 targetColor" d="M307.87,196.92c.16,2.42-.91,4.76-2.84,6.23-2.29,1.69-5.68.14-9.29-2.54h0c-4.12-3.39-7.87-7.2-11.2-11.36h0c-1.09-1.35-1.76-2.23-1.76-2.23l-2.67-33.32,24.24,32.66.51.68c1.72,3.03,2.75,6.41,3.01,9.88Z" style="fill: rgb(104, 225, 253);"/><path class="cls-10_salesman-99 targetColor" d="M237.4,152.65c-1.22.31-2.34.91-3.27,1.76-.89,1.21-1.38,2.67-1.42,4.17-1.58,12.96-.47,26.08.64,39.1,1.02,12.18-2,23.99-.97,36.18,0,.91.22,1.8.67,2.6.45.68,5.25,1.42,5.99,1.83,3.73,1.8,7.99,2.09,12.14,2.24,7.1.26,14.2.27,21.38.27,2.13-.23,4.19-.94,6.01-2.07,2.75-1.55,3.25-3.9,3.81-7.01,1.62-9.01,2.42-18.14,2.4-27.29,0-6.8-.48-13.64.45-20.39.62-4.54-1.93-28.91-5.08-30.36-13.28-6.03-29.79-5.51-42.75-1.04Z" style="fill: rgb(104, 225, 253);"/><path class="cls-3_salesman-99" d="M281.84,234.14c-.35,1.95-1.56,3.64-3.29,4.6-1.82,1.13-3.87,1.83-6.01,2.06-7.1,0-14.2,0-21.38-.28-4.15-.14-8.41-.43-12.15-2.23-.72-.35-5.54-1.16-5.98-1.85-.44-.79-.67-1.68-.67-2.58-1.04-12.2,2-23.99.97-36.18l-.43-5.04c-.92-11.36-1.58-22.72-.21-34.08.08-1.25.42-2.47,1.01-3.58h0c.09-.17.21-.34.34-.48l.09-.1c1.66,2.33,2.33,14.2,2.6,23.06-.26,1.88-.31,3.79-.16,5.68.37,2.77,1.7,2.84,2.43,11.36,1.04,12.18-5.32,20.08-4.26,32.26.66,1.8,1.52,3.53,2.57,5.14,2.39,2.16,4.92,4.16,7.57,5.99,3.73,1.79,13.12,1.69,17.26,1.86,7.1.26,11.56-5.51,18.68-5.49.34,0,.69-.04,1.02-.11Z"/><path class="cls-9_salesman-99" d="M251.37,146.6c-.67,1.43-1,3-.98,4.59.26,1.44,1.02,2.75,2.14,3.69,3.51,3.12,8.55,3.83,12.78,1.79,1.33-.58,2.39-1.66,2.95-3,.3-1.42.22-2.88-.23-4.26-.51-2.33-.78-4.71-.81-7.1.09-1.31-.05-2.62-.41-3.88-1.17-2.53-3.8-4.04-6.57-3.78-2,.1-6.5,1.29-7.52,3.22-.51.99-.14,3.44-.33,4.61-.22,1.4-.56,2.77-1.02,4.1Z"/><path class="cls-4_salesman-99" d="M252.75,137.71s-1.42,7.98,2.44,11.36c3.86,3.38,11.36,2.1,12.18-1.14s-.77-11.61-.77-11.61l-13.86,1.39Z"/><path class="cls-9_salesman-99" d="M273.69,134.29c-2.34,6.91-8.66,11.2-13.09,11.6s-9.24-3.62-11.19-8.66c-1.95-5.04-2.2-24.35-2.2-24.35-.06-1.29.2-2.57.74-3.73.61-1.42,1.75-5.68,3.27-6.84,7.03-1.83,14.43-1.67,21.37.45,1.42,1.28,2.21,5.37,2.54,6.12.15.46.25.94.3,1.42.6,4.66.34,17.96-1.73,23.99Z"/><path class="cls-9_salesman-99" d="M247,118.05c-.95-.61-2.21-.41-2.92.47-.28.56-.38,1.19-.31,1.82,0,.63.05,1.26.16,1.87.37,1.66,1.2,3.17,2.4,4.37.28.32.61.59.98.81.38.22.83.26,1.25.13.63-.37,1.03-1.04,1.06-1.77.25-1.55.12-3.13-.4-4.61-.4-1.23-1.17-2.31-2.21-3.08Z"/><path class="cls-9_salesman-99" d="M276.29,117.79c.95-.61,2.21-.41,2.92.47.27.56.38,1.19.31,1.82,0,.63-.05,1.25-.16,1.87-.37,1.66-1.2,3.17-2.4,4.37-.28.32-.61.6-.98.82-.38.21-.84.25-1.25.11-.64-.37-1.04-1.04-1.06-1.77-.25-1.55-.12-3.13.4-4.61.4-1.23,1.17-2.31,2.21-3.08Z"/><path class="cls-8_salesman-99" d="M275.64,118.53c0-.31-.11-.62-.18-.94-.41-1.65-.95-3.26-1.63-4.81l-3.19-7.91-.51-1.24s0-.06,0-.09c.02.03.02.08,0,.11-.17.19-.38.32-.62.4-1.45.54-2.93.98-4.44,1.29-1.97.27-3.97.13-5.88-.43-1.63-.47-3.31-1.86-5.05-1.79h-.26c-1.83.08-3.37,1.43-3.68,3.24-.34,4.27-1.27,8.48-2.74,12.51-1.87-1.26-2.07-3.78-2.09-5.95-.01-2.17,0-4.51,0-6.77-.07-1.09.05-2.18.37-3.22.36-1.09,1.27-1.91,2.39-2.17.91-.16,1.95.14,2.71-.35.59-.53.93-1.28.94-2.07.16-1.59.75-3.11,1.7-4.39,2.14-2.51,6.23-2.68,9.47-1.62,3.24,1.06,6.02,3.05,9.19,4.26,2.14.82,4.61,1.42,5.99,3.17.66.95,1.08,2.05,1.22,3.19.94,5.48-.39,11.1-3.69,15.58Z"/><path class="cls-10_salesman-99 targetColor" d="M236.81,179.42c.11,4.71-1.26,9.33-3.9,13.22-.17.27-.35.53-.54.78-3.81,5.1-9.06,12.27-12,16.77-2.71,4.37-8.09,6.26-12.93,4.56-9.51-6.83.77-21.68,1.52-24.34.75-2.66,21.47-30.91,24.75-35.41h0s.28-.38.34-.48l.09-.1c1.66,2.33,2.33,14.2,2.6,23.06.06.67.07,1.32.09,1.95Z" style="fill: rgb(104, 225, 253);"/><path class="cls-10_salesman-99 targetColor" d="M345.61,177.83h0c-.77.65-25.37,21.84-35.71,25.68-7.1,2.61-12.01.7-14.13-2.84h0c-1.04-1.8-1.42-3.91-1.06-5.96.06-.33.14-.65.24-.97,1.35-4.43,6.82-6.59,9.43-7.37.85-.27,1.42-.38,1.42-.38l31.95-17.88,7.87,9.71Z" style="fill: rgb(104, 225, 253);"/><polygon class="cls-10_salesman-99 targetColor" points="251.37 146.53 259.64 158.17 250.58 161.8 248.72 149.54 251.37 146.53" style="fill: rgb(104, 225, 253);"/><polygon class="cls-10_salesman-99 targetColor" points="267.94 147.21 259.64 158.17 267.99 162.05 270.13 150.53 267.94 147.21" style="fill: rgb(104, 225, 253);"/><polygon class="cls-2_salesman-99" points="251.37 146.53 259.64 158.17 250.58 161.8 248.72 149.54 251.37 146.53"/><polygon class="cls-6_salesman-99" points="267.94 147.21 259.64 158.17 267.99 162.05 270.13 150.53 267.94 147.21"/><path class="cls-10_salesman-99 targetColor" d="M207.56,215.12l37.91-.38,1.33-13.56-36.18-2.84s-11.1,9.43-3.07,16.78Z" style="fill: rgb(104, 225, 253);"/><path class="cls-9_salesman-99" d="M356.95,170.07c2.95-1.75,6.49-2.84,8.52-5.55.18-.22.31-.47.38-.74.14-.84-.74-1.42-1.52-1.77-2.01-.66-4.11-1-6.22-1.02-3.03-.25-6.08-.14-9.09.34-5.1.97-10.9,4.53-10.61,10.41.28,5.49,5.84,6.11,9.94,4.16,3.15-1.49,5.62-4.06,8.59-5.82Z"/><polygon class="cls-7_salesman-99" points="255.19 159.96 256.71 163.76 253.67 228.27 257.48 239.3 263.56 227.88 259.95 165.1 262.04 159.29 259.64 158.17 255.19 159.96"/><path class="cls-5_salesman-99" d="M345.61,177.83h0c-.77.65-25.37,21.84-35.71,25.68-7.1,2.61-12.01.7-14.13-2.84h0c-4.12-3.39-7.87-7.2-11.2-11.36h0l-.85-8.52c3.47,4.57,7.22,8.91,11.23,13.01,3.04,3,6.01,5.31,7.89,5.25,1.79-.37,3.5-1.05,5.05-2,11.19-5.86,34.91-22.55,34.91-22.55l2.8,3.32Z"/><path class="cls-8_salesman-99" d="M218.43,382.83c-.9.46-1.6,1.23-1.99,2.16-.28,1.29.24,2.62,1.31,3.39,1.02.68,2.2,1.07,3.42,1.14,6.52.85,13.06,0,19.52-.94.89-.05,1.75-.34,2.48-.84.56-.53.99-1.2,1.22-1.95.94-2.42,1.34-5.02,1.16-7.61.06-1.45-.56-2.85-1.69-3.78-.54-.27-1.13-.41-1.73-.43-3.75-.3-8.31-.48-11.84,1.02-4.13,1.79-8.08,5.3-11.87,7.82Z"/><path class="cls-8_salesman-99" d="M291.65,382.83c.9.46,1.6,1.23,1.99,2.16.28,1.29-.24,2.62-1.31,3.39-1.02.68-2.2,1.07-3.42,1.14-6.52.85-13.06,0-19.54-.94-.88-.05-1.74-.34-2.47-.84-.56-.53-.99-1.2-1.22-1.95-.95-2.42-1.35-5.02-1.16-7.61-.06-1.45.56-2.85,1.69-3.78.53-.27,1.12-.41,1.72-.43,3.76-.3,8.32-.48,11.84,1.02,4.15,1.79,8.08,5.3,11.88,7.82Z"/><path class="cls-9_salesman-99" d="M265.67,207.1c.89-.43,1.67-1.07,2.27-1.86.6-.82.57-1.95-.07-2.74-.71-.55-1.6-.79-2.48-.67h-5.28c-1.09.07-2.17-.07-3.21-.4-.86-.5-1.79-.87-2.75-1.09-2.02-.09-3.11,2.36-4.88,3.36-.7.28-1.36.65-1.96,1.12-1.24,1.32-.55,3.99.5,5.24.99.97,2.37,1.43,3.75,1.25,5-.13,9.87-1.58,14.13-4.22Z"/></g></svg>